<svg xmlns="http://www.w3.org/2000/svg" viewBox="390 5885 72 72">
  <defs>
    <style>
      .cls-1 {
        fill: #f7df1e;
      }
    </style>
  </defs>
  <g id="js" transform="translate(390 5885)">
    <rect id="background" class="cls-1" width="72" height="72"/>
    <path id="j" d="M165.65,316.344l5.51-3.335c1.063,1.885,2.03,3.479,4.349,3.479,2.223,0,3.625-.87,3.625-4.253V289.23H185.9v23.1c0,7.008-4.108,10.2-10.1,10.2-5.413,0-8.555-2.8-10.149-6.186" transform="translate(-146.719 -256.175)"/>
    <path id="s" d="M375,312.622l5.509-3.19c1.45,2.368,3.335,4.108,6.67,4.108,2.8,0,4.591-1.4,4.591-3.335,0-2.32-1.836-3.142-4.93-4.494l-1.691-.725c-4.882-2.078-8.12-4.688-8.12-10.2,0-5.075,3.866-8.941,9.908-8.941,4.3,0,7.395,1.5,9.618,5.413l-5.268,3.383c-1.16-2.078-2.416-2.9-4.349-2.9a2.944,2.944,0,0,0-3.238,2.9c0,2.03,1.257,2.852,4.156,4.108l1.691.725c5.751,2.465,8.99,4.978,8.99,10.632,0,6.09-4.785,9.425-11.213,9.425-6.283,0-10.343-3-12.324-6.911" transform="translate(-332.143 -253.178)"/>
  </g>
</svg>
