<svg xmlns="http://www.w3.org/2000/svg" viewBox="708 5885 95 72">
  <defs>
    <style>
      .cls-1 {
        fill: #cd6799;
      }
    </style>
  </defs>
  <path id="path-6" class="cls-1" d="M81.776,41.364A19.5,19.5,0,0,0,73.17,43.38a18.434,18.434,0,0,1-1.926-4.507,12.229,12.229,0,0,1-.174-3.788A33.923,33.923,0,0,1,72.2,31c-.017-.175-.208-1-2.117-1.017s-3.557.368-3.748.877a21.335,21.335,0,0,0-.8,2.858c-.33,1.754-3.817,8.014-5.813,11.293a12.257,12.257,0,0,1-1.319-3.3,12.228,12.228,0,0,1-.174-3.788,33.916,33.916,0,0,1,1.128-4.086c-.017-.175-.208-1-2.117-1.017s-3.557.368-3.748.877-.4,1.7-.8,2.858-5.032,11.609-6.247,14.31c-.625,1.385-1.163,2.49-1.544,3.244h0a.8.8,0,0,1-.069.14c-.33.649-.521,1-.521,1v.018c-.26.473-.538.912-.677.912a5.927,5.927,0,0,1,.035-2.981c.694-3.63,2.343-9.277,2.325-9.47,0-.105.312-1.087-1.076-1.6a1.711,1.711,0,0,0-1.961.333c-.121,0-.208.3-.208.3s1.51-6.348-2.88-6.348c-2.742,0-6.524,3.034-8.4,5.769-1.18.649-3.7,2.034-6.386,3.525-1.024.579-2.082,1.157-3.071,1.7-.069-.07-.139-.158-.208-.228C16.5,41.451,6.676,37.4,7.093,29.7,7.249,26.9,8.2,19.531,25.954,10.588,40.565,3.31,52.191,5.327,54.2,9.8c2.88,6.383-6.229,18.238-21.326,19.956-5.761.649-8.78-1.6-9.544-2.438-.8-.877-.92-.929-1.215-.754-.486.263-.174,1.052,0,1.508A8.934,8.934,0,0,0,27.568,32.4c2.776.912,9.526,1.42,17.7-1.771,9.145-3.577,16.294-13.52,14.194-21.85C57.362.329,43.48-2.459,30.345,2.258,22.536,5.064,14.068,9.483,7.978,15.235.742,22.074-.4,28.019.065,30.509,1.748,39.347,13.808,45.1,18.632,49.36c-.243.14-.469.263-.659.368-2.412,1.21-11.609,6.067-13.9,11.206-2.6,5.822.416,10,2.412,10.557,6.195,1.736,12.563-1.385,15.981-6.541s3-11.854,1.423-14.923a.367.367,0,0,0-.069-.105c.625-.368,1.267-.754,1.891-1.122,1.232-.737,2.447-1.42,3.488-1.982A23.327,23.327,0,0,0,27.967,53.2c-.26,3.3,1.076,7.576,2.828,9.259a3.1,3.1,0,0,0,2.29.754c2.048,0,2.967-1.719,3.991-3.753,1.249-2.49,2.377-5.384,2.377-5.384S38.049,61.9,41.866,61.9c1.388,0,2.794-1.824,3.418-2.753v.018s.035-.053.1-.175c.139-.228.226-.368.226-.368v-.035c.555-.982,1.8-3.209,3.661-6.909,2.395-4.77,4.7-10.732,4.7-10.732a30.748,30.748,0,0,0,.92,3.875,36.688,36.688,0,0,0,1.978,4.489c-.555.789-.9,1.228-.9,1.228l.017.018c-.451.6-.937,1.245-1.475,1.876a55.812,55.812,0,0,0-4.46,5.647,1.543,1.543,0,0,0,.416,2.069,3.752,3.752,0,0,0,2.325.386,10.586,10.586,0,0,0,3.488-.807,11.662,11.662,0,0,0,3-1.6,6.813,6.813,0,0,0,2.88-5.98,12.176,12.176,0,0,0-1.093-4.226c.174-.246.33-.491.5-.737A80.566,80.566,0,0,0,66.784,38.1a30.753,30.753,0,0,0,.92,3.875,26.1,26.1,0,0,0,1.683,3.858,16.652,16.652,0,0,0-5.067,6.611c-1.093,3.192-.243,4.63,1.371,4.963a4.793,4.793,0,0,0,2.533-.526,11.5,11.5,0,0,0,3.21-1.666c1.857-1.385,3.644-3.314,3.54-5.927a11.305,11.305,0,0,0-.8-3.507,18,18,0,0,1,9.214-1.07c8.26.982,9.891,6.19,9.578,8.382a5.542,5.542,0,0,1-2.62,3.753c-.573.368-.764.491-.711.754.069.386.347.368.833.3a6.5,6.5,0,0,0,4.494-5.8C95.224,46.94,90.366,41.311,81.776,41.364ZM18.059,63.073c-2.742,3.016-6.559,4.156-8.208,3.192-1.77-1.035-1.076-5.489,2.29-8.68a43.748,43.748,0,0,1,6.438-4.858c.4-.246.989-.6,1.7-1.035.121-.07.191-.105.191-.105h0l.416-.263A12.067,12.067,0,0,1,18.059,63.073ZM38.014,49.36c-.954,2.35-2.95,8.365-4.165,8.032-1.041-.281-1.683-4.84-.208-9.347a21.3,21.3,0,0,1,3.245-6.015c1.492-1.683,3.141-2.245,3.54-1.561C40.929,41.364,38.6,47.887,38.014,49.36Zm16.467,7.961c-.4.21-.781.351-.954.246-.121-.07.174-.351.174-.351s2.065-2.245,2.88-3.262c.469-.6,1.024-1.3,1.614-2.087V52.1C58.195,54.779,55.627,56.585,54.481,57.322Zm12.7-2.929c-.295-.21-.243-.912.746-3.1a11.673,11.673,0,0,1,2.828-3.683,5.012,5.012,0,0,1,.278,1.613A5.293,5.293,0,0,1,67.183,54.393Z" transform="translate(708.026 5885.026)"/>
</svg>
