<svg xmlns="http://www.w3.org/2000/svg" viewBox="448 9335 165 40">
  <defs>
    <style>
      .cls-1 {
        fill: #f42;
      }
    </style>
  </defs>
  <g id="tnw-logo-red" transform="translate(410.833 9293.866)">
    <path id="path" class="cls-1" d="M109.653,45.527a15,15,0,0,0-10.607-4.393H77.167v40h15v-25h4.809a5.008,5.008,0,0,1,3.539,1.464l5.181,5.178a5.006,5.006,0,0,1,1.471,3.536V81.134h15V64.24a15.007,15.007,0,0,0-4.4-10.607Z"/>
    <path id="path-2" data-name="path" class="cls-1" d="M187.167,41.134V55.956a5.006,5.006,0,0,1-1.471,3.535l-5.185,5.178a5,5,0,0,1-3.535,1.465H169.77a14.979,14.979,0,0,0,2.4-8.107V41.134h-15V55.956a5.006,5.006,0,0,1-1.471,3.535l-5.185,5.178a5,5,0,0,1-3.535,1.465h-4.809v-25h-15v40h21.88a15.008,15.008,0,0,0,10.61-4.393l5.01-5.008v9.4h14.38a15.008,15.008,0,0,0,10.61-4.393l8.11-8.107a15.007,15.007,0,0,0,4.4-10.607V41.134Z"/>
    <path id="path-3" data-name="path" class="cls-1" d="M37.167,56.134h10v25h15v-25h10v-15h-35Z"/>
  </g>
</svg>
