<svg xmlns="http://www.w3.org/2000/svg" viewBox="0.017 160 1280.067 360">
    <defs>
        <style>
            .cls-1 {
                fill: rgba(255,255,255,0.05);
            }
        </style>
    </defs>
    <path id="path-10" class="cls-1" d="M1263.333,360H1280q-99.6-56-199.133-112H1280v-5.733h0q-101.8-38.5-203.667-77.067H1280v-3.867h0q-102-25.7-203.933-51.4H1280v-2.6h0q-102.2-17.1-204.333-34.267H1280V71.333h0q-102.4-11.4-204.8-22.867H1280V47.333l-205.6-15.2H1280V31.4q-103.4-5.1-206.8-10.133H1280v-.533h0l-208.667-6.8H1280V13.6q-105.8-2.3-211.6-4.533H1280v-.2h0l-215.933-3H1280V5.733l-223.467-2H1280V3.667q-117.2-.7-234.467-1.333H1280V2.267h0q-126-.4-251.933-.867H1280V1.333h0q-138.4-.3-276.8-.533h276.867V.667h-.133q-167.8-.2-335.6-.333h335.733V.267h-.4l-567.2-.2H1280V0H0V.067H567.6L.4.267H0V.333H335.6Q167.9.533.2.667H0V.733H276.867q-138.4.3-276.8.533h0v.067H252Q126,1.733.067,2.2v.067H234.533Q117.333,2.967.067,3.6v.067H223.533L.067,5.667V5.8H216L.067,8.8V9h211.6Q105.767,11.5,0,13.667V14H208.667L0,20.8v.533H206.8Q103.4,26.333,0,31.4H0v.733H205.6Q102.8,39.833,0,47.4v1.133H204.8Q102.4,59.933,0,71.4H0v1.733H204.333Q102.133,90.233,0,107.333H0v2.533H203.933q-102,25.8-203.933,51.4H0v3.867H203.667Q101.867,203.733,0,242.2v5.733H199.133Q99.533,304.033,0,360H16.667q97-56,193.933-112H373.133q-60.3,56-120.533,112h16.667q57.7-56,115.333-112H547.133q-21,56-41.933,112h16.667q18.4-56,36.733-112H721.4q18.4,56,36.733,112H774.8q-21-56-41.933-112H895.4q57.7,56,115.333,112H1027.4q-60.3-56-120.533-112H1069.4Q1166.4,304,1263.333,360Zm1.8-117.8H1070.667q-68.5-38.5-137.067-77.067h132.6Q1165.6,203.733,1265.133,242.2ZM647.8,20.733c-.867-2.267-1.667-4.533-2.533-6.8h9.2l7,6.8H647.8Zm14.067.533c3.467,3.4,7,6.8,10.467,10.133h-20.6c-1.267-3.4-2.533-6.8-3.8-10.133ZM643.333,8.933c-.4-1-.733-2-1.133-3h3.867c1,1,2.067,2,3.067,3Zm6.067.2c1.533,1.533,3.067,3,4.667,4.533h-8.933c-.533-1.533-1.133-3-1.667-4.533Zm-8-5.467c-.2-.467-.333-.867-.533-1.333H642.4c.467.467.933.867,1.4,1.333Zm2.467.067c.667.667,1.4,1.333,2.067,2h-3.8c-.267-.667-.533-1.333-.733-2h2.467Zm-3.4-2.4a4.594,4.594,0,0,0-.2-.533h.467a4.31,4.31,0,0,0,.6.533Zm.933,0c.333.267.6.6.933.867h-1.467c-.133-.267-.2-.6-.333-.867ZM640,0c0,.067.067.133.067.2h-.2c.067,0,.067-.067.133-.2Zm0,0a.92.92,0,0,1-.267.2h-.2A.886.886,0,0,0,640,0Zm0,0h0c0,.067-.067.133-.067.2h-.2C639.8.2,639.867.133,640,0Zm-.133.333c-.067.133-.067.267-.133.333h-.4l.333-.333Zm0,0h.2c.067.133.067.267.133.333h-.467C639.8.533,639.867.467,639.867.333Zm.267,0h.2l.333.333H640.2C640.2.533,640.133.467,640.133.333Zm-.067-.067c0-.067-.067-.133-.067-.2h0a.92.92,0,0,0,.267.2ZM640,0h0l.4.2h-.2Zm-.067,0-.6.2H639a2.617,2.617,0,0,0,.933-.2Zm0,0h0l-.4.2h-.2A1.075,1.075,0,0,0,639.933,0ZM639.4.333a2.7,2.7,0,0,1-.6.333h-.533A5.225,5.225,0,0,1,639.2.333Zm.067,0h.2a1.769,1.769,0,0,1-.4.333H638.8A6.2,6.2,0,0,0,639.467.333Zm.8.4a4.594,4.594,0,0,0,.2.533H639.6a4.593,4.593,0,0,1,.2-.533h.467Zm.533,0h.467a7.283,7.283,0,0,0,1,.533H641.4A4.31,4.31,0,0,1,640.8.733Zm-.067-.067a1.769,1.769,0,0,0-.4-.333h.2a2.7,2.7,0,0,0,.6.333ZM640.6.333h.267a5.227,5.227,0,0,0,.933.333h-.533A6.191,6.191,0,0,1,640.6.333Zm-.133-.067-.4-.2h0l.6.2Zm-.4-.267h0c.333.067.6.133.933.2h-.333A1.076,1.076,0,0,1,640.067,0ZM639.8,0c-.467.067-.933.133-1.333.2h-.733C638.4.133,639.067.067,639.8,0Zm0,0h0c-.267.067-.533.133-.867.2h-.467A4.3,4.3,0,0,0,639.8,0Zm-1.067.333a10.658,10.658,0,0,1-1.4.333h-1.267c.667-.133,1.4-.267,2.067-.333Zm0,0h.4a5.224,5.224,0,0,1-.933.333h-.8C637.867.533,638.267.467,638.733.333Zm.467.4a4.31,4.31,0,0,1-.6.533h-.867a7.286,7.286,0,0,1,1-.533h.467Zm.067,0h.467a4.593,4.593,0,0,1-.2.533h-.867A4.317,4.317,0,0,0,639.267.733Zm.2.6c-.133.267-.2.6-.333.867h-1.467c.333-.267.6-.6.933-.867Zm.067,0h.867c.067.267.2.6.267.867H639.2A3.347,3.347,0,0,0,639.533,1.333Zm1.2,1a10.584,10.584,0,0,0,.467,1.333h-2.4a10.575,10.575,0,0,1,.467-1.333Zm1.733,0H644c.8.467,1.533.867,2.333,1.333h-2.4A13.926,13.926,0,0,0,642.467,2.333Zm-.067-.067a11.911,11.911,0,0,1-.933-.867h.867c.533.267,1,.6,1.533.867Zm0-.933h1.067c.733.267,1.533.6,2.267.867H644C643.467,1.933,642.933,1.667,642.4,1.333Zm-.067,0a7.29,7.29,0,0,0-1-.533h.6a12.968,12.968,0,0,0,1.467.533Zm-.4-.6h.933c.733.2,1.467.4,2.2.533h-1.6A13.962,13.962,0,0,1,641.933.733ZM641.8.667a5.227,5.227,0,0,0-.933-.333h.4a10.658,10.658,0,0,0,1.4.333Zm-.533-.333h.6c.667.133,1.4.267,2.067.333h-1.267C642.2.533,641.733.467,641.267.333ZM641,.267c-.333-.067-.6-.133-.933-.2h.067c.467.067.867.133,1.333.2ZM640.2,0h0c.733.067,1.4.133,2.067.2h-.733A4.3,4.3,0,0,1,640.2,0Zm-.6,0c-1,.067-2.067.133-3.067.2h-1.667C636.4.133,637.933.067,639.4,0Zm0,0h.133c-.667.067-1.4.133-2.067.2H636.6A22.675,22.675,0,0,0,639.6,0Zm-2.467.333c-1.067.133-2.133.267-3.2.333h-2.867C632.6.533,634.2.4,635.733.333Zm.067,0h.867c-.733.133-1.4.267-2.133.333h-1.867C635.133.533,636.133.467,637.2.333Zm.867.4a12.968,12.968,0,0,1-1.467.533H635c.733-.2,1.467-.4,2.2-.533h.867Zm0,0h.6a7.286,7.286,0,0,1-1,.533h-1A12.014,12.014,0,0,0,638.067.733Zm-.467.6c-.533.267-1.067.6-1.6.867h-1.8c.733-.267,1.533-.6,2.267-.867Zm.067,0h.867a11.933,11.933,0,0,0-.933.867h-1.467C636.6,1.933,637.133,1.667,637.667,1.333Zm-.133,1c-.467.467-.933.867-1.467,1.333h-2.4c.8-.467,1.533-.867,2.333-1.333Zm.067,0h1.533c-.2.467-.333.867-.533,1.333h-2.4C636.667,3.2,637.133,2.733,637.6,2.333Zm1,1.4c-.267.667-.533,1.333-.733,2h-3.8c.667-.667,1.4-1.333,2.067-2H638.6Zm.2,0h2.467c.2.667.467,1.333.667,2h-3.8C638.333,5.067,638.533,4.4,638.8,3.733Zm3.133,2.2,1,3h-5.867l1-3Zm4.4,0H650.2l5.2,3h-5.867Q648.033,7.433,646.333,5.933Zm-.133-.2c-.733-.667-1.467-1.333-2.133-2h2.467c1.133.667,2.333,1.333,3.467,2Zm.467-2h3l5.2,2h-4.6Zm-.2-.067c-.8-.467-1.6-.867-2.4-1.333h1.867c1.133.467,2.333.867,3.467,1.333Zm-.333-1.333H649c1.733.467,3.467.867,5.2,1.333h-4.533C648.467,3.2,647.267,2.733,646.133,2.333Zm-.2-.067c-.8-.267-1.533-.6-2.333-.867h1.667c1.133.267,2.267.6,3.4.867Zm-.533-.933h2.533c1.733.267,3.467.6,5.133.867h-4.2C647.733,1.933,646.6,1.667,645.4,1.333Zm-.267,0c-.733-.2-1.467-.4-2.2-.533h1.4c1.067.2,2.2.4,3.267.533Zm-.733-.6h2.067c1.667.2,3.267.4,4.933.533h-3.667C646.6,1.133,645.533.933,644.4.733ZM644,.667c-.733-.133-1.4-.267-2.133-.333h.867C643.8.467,644.8.6,645.867.667ZM642.867.333H644.2c1.533.133,3.133.267,4.667.333H646C645,.533,643.933.467,642.867.333Zm-.533-.067c-.667-.067-1.4-.133-2.067-.2h.133l3,.2ZM640.4,0h.2c1.533.067,3.067.133,4.533.2h-1.667A23.686,23.686,0,0,1,640.4,0Zm-1,0-4.667.2H632.2l6.867-.2Zm-5.933.333c-2.4.133-4.8.267-7.2.333h-6.6C623.2.533,626.8.4,630.333.333Zm.133,0h2.067c-1.6.133-3.2.267-4.8.333h-4.333C628.933.533,631.267.467,633.6.333Zm2,.4c-1.133.2-2.267.4-3.333.533H628.6c1.667-.2,3.267-.4,4.933-.533H635.6Zm.133,0h1.4c-.733.2-1.467.4-2.2.533h-2.4C633.533,1.133,634.6.933,635.733.733Zm-1.133.6c-1.2.267-2.333.6-3.533.867h-4.2c1.733-.267,3.467-.6,5.133-.867Zm.133,0H636.4c-.8.267-1.533.6-2.333.867h-2.8C632.4,1.933,633.6,1.667,634.733,1.333Zm-.867,1c-1.2.467-2.333.867-3.533,1.333H625.8c1.733-.467,3.467-.867,5.2-1.333Zm.133,0h1.867c-.8.467-1.6.867-2.4,1.333h-2.933C631.733,3.2,632.867,2.733,634,2.333Zm-.667,1.4-3.6,2h-4.6l5.2-2h3Zm.2,0H636c-.733.667-1.467,1.333-2.133,2H630C631.2,5.067,632.333,4.4,633.533,3.733Zm.133,2.2c-1.067,1-2.133,2-3.267,3h-5.867l5.2-3Zm.267,0H637.8c-.4,1-.733,2-1.133,3H630.8C631.867,7.933,632.867,6.933,633.933,5.933Zm2.667,3.2c-.533,1.533-1.133,3-1.667,4.533H626c1.533-1.533,3.067-3,4.667-4.533Zm.4,0h6c.467,1.533,1,3,1.467,4.533h-8.933C636,12.133,636.533,10.667,637,9.133ZM644.6,14l2.2,6.8H633.2l2.2-6.8Zm10.467,0h9.2c3.933,2.267,7.8,4.533,11.733,6.8H662.4C659.933,18.533,657.467,16.267,655.067,14Zm-.4-.333c-1.6-1.533-3.267-3-4.867-4.533h6c2.6,1.533,5.2,3,7.8,4.533Zm1.6-4.533H663.6c3.867,1.533,7.733,3,11.667,4.533H664.333C661.6,12.133,658.933,10.667,656.267,9.133Zm-.4-.2c-1.8-1-3.533-2-5.333-3h4.733c2.6,1,5.2,2,7.733,3Zm-.267-3h7.267c3.867,1,7.8,2,11.667,3h-11C660.867,7.933,658.267,6.933,655.6,5.933Zm-.4-.2c-1.8-.667-3.533-1.333-5.333-2h4.6l7.8,2Zm-.333-2H661.8c3.933.667,7.8,1.333,11.733,2H662.867Zm-.4-.067c-1.8-.467-3.533-.867-5.333-1.333H653.4c2.6.467,5.2.867,7.8,1.333ZM653.8,2.333h6.467c3.933.467,7.8.867,11.733,1.333H661.8C659.133,3.2,656.467,2.733,653.8,2.333Zm-.4-.067c-1.733-.267-3.533-.6-5.267-.867h3.8c2.6.267,5.133.6,7.733.867Zm-1.2-.933h5.733c3.867.267,7.8.6,11.667.867h-9.467C657.533,1.933,654.867,1.667,652.2,1.333Zm-.533,0C650,1.133,648.333.933,646.6.8h3.133c2.467.2,4.933.4,7.4.533Zm-1.733-.6h4.733c3.733.2,7.467.4,11.2.533h-8.333C655,1.133,652.467.933,649.933.733Zm-.8-.067c-1.6-.133-3.2-.267-4.8-.333H646.4c2.333.133,4.667.267,7.067.333Zm-2.6-.333h3.133C653.2.467,656.8.6,660.333.667h-6.6C651.333.533,648.933.467,646.533.333ZM645.267.267,640.6.067h.267l6.867.2ZM640.933,0h.467l10.467.2H648C645.6.2,643.267.133,640.933,0Zm-1.867,0L632,.2h-3.867L638.6,0Zm-9,.333C626.4.467,622.8.6,619.133.667H609.067c5.4-.133,10.8-.267,16.2-.333Zm0,.4c-2.533.2-5.067.4-7.6.533h-8.333c3.733-.2,7.467-.4,11.2-.533h4.733Zm.2,0H633.4c-1.667.2-3.333.4-5.067.533h-5.467C625.333,1.133,627.8.933,630.267.733Zm-2.467.6c-2.667.267-5.267.6-7.933.867H610.4c3.867-.267,7.8-.6,11.667-.867Zm.267,0h3.8c-1.733.267-3.533.6-5.267.867h-6.267C622.933,1.933,625.467,1.667,628.067,1.333Zm-1.867,1c-2.667.467-5.333.867-8,1.333H608c3.933-.467,7.8-.867,11.733-1.333Zm.333,0H630.8c-1.8.467-3.533.867-5.333,1.333h-6.8C621.333,3.2,623.933,2.733,626.533,2.333Zm-1.4,1.4-8,2H606.467c3.933-.667,7.8-1.333,11.733-2h6.933Zm.333,0h4.6c-1.8.667-3.533,1.333-5.333,2H617.6C620.267,5.067,622.867,4.4,625.467,3.733Zm-1.067,2.2c-2.667,1-5.267,2-7.933,3h-11c3.867-1,7.8-2,11.667-3Zm.333,0h4.733c-1.8,1-3.533,2-5.333,3H617C619.6,7.933,622.2,6.933,624.733,5.933Zm-1,3.2c-2.667,1.533-5.333,3-8,4.533H604.8c3.867-1.533,7.733-3,11.667-4.533Zm.467,0h6c-1.6,1.533-3.267,3-4.867,4.533H616.4C619,12.133,621.6,10.667,624.2,9.133ZM624.933,14c-2.4,2.267-4.867,4.533-7.267,6.8h-13.6c3.933-2.267,7.8-4.533,11.733-6.8Zm.667,0h9.2c-.867,2.267-1.667,4.533-2.533,6.8h-13.6C620.933,18.533,623.267,16.267,625.6,14Zm6.467,7.267c-1.267,3.4-2.533,6.8-3.8,10.133h-20.6c3.467-3.4,7-6.8,10.467-10.133Zm.933,0h13.933c1.133,3.4,2.2,6.8,3.333,10.133h-20.6C630.8,28,631.933,24.667,633,21.267ZM650.533,32.2l5,15.2H624.4l5-15.2Zm1.533,0h21.067c5.2,5.067,10.467,10.133,15.667,15.2H657.733C655.867,42.333,653.933,37.267,652.067,32.2Zm22.533,0h21.067l26.4,15.2H691Zm-.8-.8c-3.667-3.4-7.267-6.8-10.933-10.133H676.8c5.867,3.4,11.733,6.8,17.6,10.133Zm4-10.133h17.067c8.733,3.4,17.467,6.8,26.2,10.133h-25.2C689.8,28,683.8,24.667,677.8,21.267Zm-.867-.533-12-6.8h11.2c5.8,2.267,11.667,4.533,17.467,6.8H676.933Zm0-6.733H694.2l26.2,6.8H694.8C688.867,18.533,682.933,16.267,676.933,14Zm-.867-.333c-4-1.533-7.933-3-11.933-4.533H675.4c5.8,1.533,11.667,3,17.467,4.533Zm.2-4.533H693.2c8.733,1.533,17.533,3,26.267,4.533H694.133C688.2,12.133,682.2,10.667,676.267,9.133Zm-.933-.2c-4-1-7.933-2-11.933-3h10.933c5.867,1,11.667,2,17.533,3Zm-.133-3h16.533c8.8,1,17.533,2,26.333,3H693.133C687.133,7.933,681.2,6.933,675.2,5.933Zm-.867-.2-12-2H672.8l17.6,2Zm-.733-2h15.8c8.867.667,17.667,1.333,26.533,2H691.667C685.6,5.067,679.6,4.4,673.6,3.733Zm-.867-.067c-4-.467-8-.867-12-1.333h9.8c5.867.467,11.8.867,17.667,1.333Zm-1.467-1.333h14.8c8.867.467,17.733.867,26.6,1.333H689.333C683.333,3.2,677.267,2.733,671.267,2.333Zm-.933-.067c-4-.267-7.933-.6-11.933-.867h8.733c5.867.267,11.733.6,17.6.867Zm-2.6-.933H681c8.867.267,17.733.6,26.6.867H685.733C679.8,1.933,673.8,1.667,667.733,1.333Zm-1.267,0c-3.8-.2-7.667-.4-11.467-.533h7.2c5.667.2,11.267.4,16.933.533Zm-3.733-.6h11c8.6.2,17.133.4,25.733.533h-19.4C674.333,1.133,668.533.933,662.733.733ZM660.8.667C657.133.533,653.533.4,649.867.333h4.8c5.4.133,10.8.267,16.2.333ZM655.067.333h7.467c8.267.133,16.533.267,24.8.333H671.667C666.133.533,660.6.467,655.067.333ZM652.133.267,641.4.067h.667l16.067.2Zm-10-.267H643.2l24.867.2H658.6C653.067.2,647.6.133,642.133,0Zm-4.267,0L621.4.2H612L636.867,0Zm.067,0h.667L627.867.2h-6C627.267.2,632.6.133,637.933,0Zm-13,.333c-5.533.133-11.067.267-16.6.333H592.667C600.933.533,609.2.4,617.467.333Zm-7.667.4c-5.8.2-11.533.4-17.333.533h-19.4c8.6-.2,17.133-.4,25.733-.533h11Zm.533,0H625c-3.8.2-7.667.4-11.467.533H600.867C606.533,1.133,612.133.933,617.8.733Zm-5.533.6c-6,.267-12,.6-18,.867H572.4c8.867-.267,17.733-.6,26.6-.867Zm.6,0H621.6c-4,.267-7.933.6-11.933.867H595.333C601.133,1.933,607,1.667,612.867,1.333Zm-4.133,1c-6,.467-12.067.867-18.067,1.333H567.333c8.867-.467,17.733-.867,26.6-1.333Zm.733,0h9.8c-4,.467-8,.867-12,1.333h-15.4C597.733,3.2,603.6,2.733,609.467,2.333Zm-3.067,1.4-18,2H564.133c8.867-.667,17.667-1.333,26.533-2H606.4Zm.8,0h10.467l-12,2H589.6Zm-2.4,2.2c-6,1-11.933,2-17.933,3H561.933c8.8-1,17.533-2,26.333-3Zm.8,0h10.933c-4,1-7.933,2-11.933,3H588.067C593.933,7.933,599.8,6.933,605.6,5.933Zm-1.867,3.2c-6,1.533-11.933,3-17.933,4.533H560.467c8.733-1.533,17.533-3,26.267-4.533Zm.867,0h11.267c-4,1.533-7.933,3-11.933,4.533H587.067C592.933,12.133,598.733,10.667,604.6,9.133ZM603.067,14c-5.933,2.267-11.933,4.533-17.867,6.8H559.6L585.8,14Zm.8,0h11.2l-12,6.8H586.4C592.267,18.533,598.067,16.267,603.867,14ZM602.2,21.267c-6,3.4-12,6.8-18.067,10.133h-25.2c8.733-3.4,17.467-6.8,26.2-10.133Zm1,0h13.933c-3.667,3.4-7.267,6.8-10.933,10.133H585.6C591.467,28,597.333,24.667,603.2,21.267ZM605.4,32.2,589,47.4H557.933l26.4-15.2Zm1.467,0h21.067c-1.933,5.067-3.8,10.133-5.733,15.2H591.133C596.4,42.333,601.667,37.267,606.867,32.2ZM621.8,48.533c-2.867,7.6-5.733,15.2-8.533,22.867h-46.8c7.867-7.6,15.667-15.2,23.533-22.867Zm2.267,0h31.867c2.467,7.6,5,15.2,7.467,22.867H616.533C619.067,63.733,621.6,56.133,624.067,48.533Zm34.133,0H690c7.867,7.6,15.667,15.2,23.533,22.867h-46.8C663.867,63.733,661,56.133,658.2,48.533Zm34,0H724q19.8,11.4,39.533,22.867h-46.8Q704.533,59.9,692.2,48.533Zm34.067,0h39q29.5,11.4,58.933,22.867H766.867Q746.567,59.9,726.267,48.533Zm-2-1.133c-9-5.067-18.067-10.133-27.067-15.2H723c13.133,5.067,26.2,10.133,39.333,15.2ZM725,32.2h39.667l59,15.2H765.2Zm-2-.8c-8.933-3.4-17.867-6.8-26.8-10.133h26.2c13.133,3.4,26.2,6.8,39.333,10.133Zm1.333-10.133H763.8c19.733,3.4,39.4,6.8,59.133,10.133H764.667C751.2,28,737.8,24.667,724.333,21.267Zm-2-.533c-8.933-2.267-17.933-4.533-26.867-6.8H721.4l39.4,6.8H722.333ZM723.4,14h39.133c19.733,2.267,39.533,4.533,59.267,6.8h-58C750.267,18.533,736.867,16.267,723.4,14Zm-2-.333c-9-1.533-17.933-3-26.933-4.533H720c13.2,1.533,26.333,3,39.533,4.533Zm.533-4.533h38.533c19.867,1.533,39.667,3,59.533,4.533H762.4C748.933,12.133,735.4,10.667,721.933,9.133Zm-2-.2-27-3h24.933c13.2,1,26.467,2,39.667,3Zm-.2-3h37.733q29.9,1.5,59.867,3h-57Zm-2-.2c-9.067-.667-18.067-1.333-27.133-2h23.933l40,2Zm-1.4-2H752.8l60.533,2h-56Zm-1.867-.067C705.4,3.2,696.267,2.8,687.2,2.333h22.533C723.133,2.8,736.6,3.2,750,3.667ZM711.4,2.333h34.533c20.4.467,40.8.867,61.267,1.333H752.667Q731.967,2.967,711.4,2.333Zm-2.133-.067C700.2,2,691.067,1.667,682,1.4h20.333c13.467.267,27,.6,40.467.867Zm-5.4-.933H735.4c20.667.267,41.333.6,61.933.867h-52Q724.633,1.8,703.867,1.333Zm-2.933,0c-8.8-.2-17.6-.4-26.4-.533H691.6c13.133.2,26.267.4,39.4.533Zm-8-.6h27q30.5.3,60.933.533H733.333Q713.133,1.067,692.933.733ZM688.467.667C680,.533,671.533.4,663.067.333H674.8c12.8.133,25.6.267,38.333.333Zm-12.8-.333H694.8c20.133.133,40.333.267,60.467.333H715C701.933.533,688.8.467,675.667.333ZM668.733.267l-25.467-.2H645l39.133.2ZM645.133,0h3l63.333.2h-26.2Q665.267.2,645.133,0ZM634.867,0,594.733.2h-26.2L631.867,0ZM635,0h1.733L611.267.2h-15.4C608.867.2,621.933.133,635,0ZM604.333.333C591.2.467,578.067.6,565,.667H524.667C544.8.533,565,.4,585.133.333Zm.867,0h11.733C608.467.467,600,.6,591.533.667H566.867C579.6.533,592.4.467,605.2.333Zm-18.133.4q-20.2.3-40.4.533H499.133q30.5-.3,60.933-.533h27Zm1.267,0H605.4c-8.8.2-17.6.4-26.4.533H548.867C562.067,1.133,575.2.933,588.333.733Zm-12.2.6c-13.8.267-27.667.6-41.467.867H482.6c20.667-.267,41.333-.6,61.933-.867Zm1.533,0H598c-9.067.267-18.2.6-27.267.867H537.2C550.667,1.933,564.2,1.667,577.667,1.333Zm-9.067,1c-13.733.467-27.533.867-41.267,1.333H472.867c20.4-.467,40.8-.867,61.267-1.333Zm1.733,0h22.533c-9.067.467-18.2.867-27.267,1.333H530C543.467,3.2,556.867,2.733,570.333,2.333Zm-6.667,1.4q-20.5,1-40.933,2h-56l60.533-2h36.4Zm1.8,0H589.4c-9.067.667-18.067,1.333-27.133,2h-36.8Zm-5.2,2.2-40.6,3h-57q29.9-1.5,59.867-3Zm1.867,0h24.933l-27,3h-37.6Q542.267,7.433,562.133,5.933Zm-4.067,3.2c-13.467,1.533-27,3-40.467,4.533H460c19.867-1.533,39.667-3,59.533-4.533Zm1.933,0h25.533c-9,1.533-17.933,3-26.933,4.533H520.467C533.667,12.133,546.8,10.667,560,9.133ZM556.6,14c-13.467,2.267-26.867,4.533-40.333,6.8h-58C478,18.533,497.8,16.267,517.533,14Zm1.933,0h25.933c-8.933,2.267-17.933,4.533-26.867,6.8H519.067Q538.867,17.4,558.533,14Zm-2.867,7.267c-13.4,3.4-26.867,6.8-40.267,10.133H457.133c19.733-3.4,39.4-6.8,59.133-10.133Zm1.933,0h26.2c-8.933,3.4-17.867,6.8-26.8,10.133H518.267C531.4,28,544.467,24.667,557.6,21.267ZM555,32.2q-20.1,7.6-40.267,15.2H456.267l59-15.2Zm2,0h25.8c-9,5.067-18.067,10.133-27.067,15.2H517.667C530.8,42.333,543.867,37.267,557,32.2Zm-3.267,16.333q-20.3,11.4-40.6,22.867H455.8Q485.3,60,514.733,48.533Zm2.2,0h31.8q-12.3,11.4-24.6,22.867h-46.8Q536.233,59.9,555.933,48.533Zm5.4,24.533c-12.267,11.4-24.6,22.867-36.867,34.267H454.133q29.7-17.1,59.333-34.267Zm3.4,0H612.6c-4.267,11.4-8.533,22.867-12.867,34.267H529.467Q547.067,90.233,564.733,73.067Zm51.267,0h48c3.733,11.4,7.467,22.867,11.267,34.267H604.733Q610.433,90.233,616,73.067Zm51.4,0h47.867l35.267,34.267H680.2Q673.8,90.233,667.4,73.067Zm51.267,0h47.867q29.7,17.1,59.333,34.267H755.533C743.267,95.933,730.933,84.533,718.667,73.067Zm51.267,0H828.6q44.2,17.1,88.467,34.267h-86.2Q800.367,90.233,769.933,73.067Zm63.133,0H923.2q66.4,17.1,132.8,34.267H923.6Q878.4,90.233,833.067,73.067ZM828.6,71.4Q798.4,60,768.267,48.533h59.867q44.3,11.4,88.533,22.867H828.6Zm4-22.867h90.067q66.5,11.4,133,22.867H923.2Q877.9,59.9,832.6,48.533ZM828.067,47.4l-60.4-15.2h59.667q44.3,7.6,88.667,15.2ZM831.8,32.2h89.933q66.7,7.6,133.333,15.2H922.533Q877.233,39.8,831.8,32.2Zm-4.533-.8c-20.2-3.4-40.333-6.8-60.533-10.133h59.4q44.4,5.1,88.867,10.133ZM830.6,21.267h89.733q66.9,5.1,133.867,10.133H921.667Q876.067,26.3,830.6,21.267Zm-4.467-.533c-20.2-2.267-40.467-4.533-60.667-6.8h59.067q44.6,3.4,89.267,6.8H826.133ZM828.867,14h89.4q67.3,3.4,134.667,6.8H920.267Zm-4.533-.333c-20.333-1.533-40.6-3-60.933-4.533h58.4q44.9,2.3,89.8,4.533ZM826.2,9.133h88.867q67.9,2.3,135.867,4.533h-132.8Q872.133,11.367,826.2,9.133Zm-4.6-.2c-20.4-1-40.867-2-61.267-3H817.8l90.533,3Zm.467-3H910.2l137.6,3h-133Q868.5,7.433,822.067,5.933Zm-4.533-.2-62-2H811.4l92,2Zm-1.867-2h86.8l140.8,2H909.933Zm-4.4-.067C790.333,3.2,769.4,2.8,748.533,2.333h53.6q46.9.7,93.733,1.333ZM806.2,2.333h84.667q72.5.7,145.067,1.333h-133.6Q854.233,2.967,806.2,2.333Zm-4.867-.067C780.133,2,759,1.667,737.8,1.4h49.8q47.9.4,95.867.867Zm-9.867-.933h81.267q75.5.4,151.067.867h-134Q840.6,1.8,791.467,1.333Zm-6.933,0C763.667,1.133,742.867.933,722,.8h44q48,.3,96.067.533ZM769.2.733h74.733q77.8.3,155.533.533H867.8Q818.5,1.067,769.2.733ZM758.267.667q-31-.2-62-.333H728.8q48.9.2,97.867.333Zm-26.8-.333H791q83.2.2,166.467.333H832.333Q781.833.467,731.467.333ZM713.6.267l-65.267-.2H653.8l107.733.2ZM654.467,0h11L864.2.2H767.267Q710.867.2,654.467,0ZM614.533,0h11L512.667.2H415.8Q515.2.2,614.533,0ZM626.2,0h5.467L566.4.2H518.467Q572.367.2,626.2,0ZM548.533.333q-50.4.2-100.8.333h-125.2q83.2-.2,166.4-.333Zm2.667,0h32.533q-31,.2-62,.333h-68.4Q502.233.467,551.2.333Zm-40.4.4q-49.3.3-98.533.533H280.533q77.8-.3,155.533-.533H510.8Zm3.2,0h44c-20.867.2-41.667.4-62.533.533H417.933Q466.033,1.067,514,.733Zm-25.467.6q-49.2.4-98.333.867h-134q75.5-.4,151.067-.867Zm3.8,0h49.8c-21.2.267-42.333.6-63.533.867H396.467Q444.367,1.8,492.333,1.333Zm-18.533,1q-48.1.7-96.133,1.333h-133.6q72.5-.7,145.067-1.333Zm4.067,0h53.6C510.533,2.8,489.6,3.2,468.733,3.667h-84.6Q430.933,2.967,477.867,2.333Zm-13.533,1.4-94.267,2H236.733l140.8-2h86.8Zm4.2,0H524.4l-62,2H376.6Zm-10.667,2.2-92.733,3H232.2l137.6-3Zm4.333,0h57.467c-20.4,1-40.867,2-61.267,3H371.667Zm-8.4,3.2q-46,2.3-91.933,4.533h-132.8q67.9-2.3,135.867-4.533Zm4.4,0h58.4c-20.333,1.533-40.6,3-60.933,4.533h-87.2Q413.267,11.367,458.2,9.133ZM451.133,14l-91.4,6.8H227.067q67.3-3.4,134.667-6.8Zm4.4,0H514.6c-20.2,2.267-40.467,4.533-60.667,6.8H366.267Q410.967,17.4,455.533,14ZM449.4,21.267q-45.5,5.1-91,10.133H225.8q66.9-5.1,133.867-10.133Zm4.4,0h59.4c-20.2,3.4-40.333,6.8-60.533,10.133H364.933Q409.333,26.3,453.8,21.267ZM448.2,32.2,357.4,47.4H224.933q66.7-7.6,133.333-15.2Zm4.467,0h59.667l-60.4,15.2H364Q408.3,39.8,452.667,32.2ZM447.4,48.533q-45.3,11.4-90.667,22.867h-132.4q66.5-11.4,133-22.867Zm4.467,0h59.867q-30.2,11.4-60.333,22.867H363.333Q407.633,59.9,451.867,48.533Zm-5,24.533q-45.3,17.1-90.533,34.267h-132.4q66.4-17.1,132.8-34.267Zm4.533,0h58.667q-30.5,17.1-60.933,34.267h-86.2Q407.133,90.233,451.4,73.067Zm-6.8,36.867-91.4,51.4H223.733q66.3-25.7,132.667-51.4Zm5.067,0h72q-27.7,25.7-55.333,51.4H360.6Q405.2,135.633,449.667,109.933Zm77.133,0h72q-9.6,25.7-19.267,51.4H473.867Q500.367,135.633,526.8,109.933Zm77.133,0h72.133c5.6,17.133,11.267,34.267,16.867,51.4H587.067C592.667,144.2,598.333,127.067,603.933,109.933Zm77.2,0h72q26.5,25.7,52.933,51.4H700.333Q690.833,135.633,681.133,109.933Zm77.133,0h72l89,51.4H813.533Q785.933,135.633,758.267,109.933Zm77.133,0h88.267q66.3,25.7,132.667,51.4H926.8Zm429.733,51.4H1066.2l-135.8-51.4h135.533Zm0-54h-199.2q-68-17.1-136-34.267h135.6Q1165.433,90.267,1265.133,107.333Zm-.067-35.933H1065.533q-68.1-11.4-136.2-22.867H1065Q1165.1,59.933,1265.067,71.4Zm-.067-24H1065q-68.3-7.6-136.533-15.2H1064.2Zm-.133-16H1064.133q-68.5-5.1-137.067-10.133h135.867Q1163.933,26.367,1264.867,31.4Zm0-10.667H1062.933q-69-3.4-137.933-6.8h136.067Q1163.067,17.433,1264.867,20.733Zm-.333-7.067h-203.6q-69.6-2.3-139.133-4.533h136.333Q1161.233,11.433,1264.533,13.667Zm-.2-4.733h-206.4l-141-3h136.733Zm-.4-3.2H1053.4l-144.333-2h137ZM1264,3.667H1046.133q-74.4-.7-148.8-1.333H1035.4Q1149.7,2.933,1264,3.667Zm-2.733-1.4h-227.6q-77.5-.4-154.933-.867h138Q1138.933,1.8,1261.267,2.267Zm-10-.933h-241q-80.1-.3-160.2-.533H986.8Q1119,1,1251.267,1.333ZM1225.533.667H972.467q-87.2-.2-174.333-.333H918.467Q1071.967.533,1225.533.667Zm-70.8-.4H885L667.8.067h30.467ZM125.267.267l456.467-.2H612.2L395,.267Zm-70.8.4Q207.967.467,361.4.333H481.8q-87.1.2-174.267.333Zm-25.733.667Q160.933,1.033,293.2.8H429.933q-80.1.3-160.2.533Zm-10,.933q122.3-.4,244.6-.867h138q-77.5.4-155,.867ZM16,3.667q114.3-.7,228.6-1.333H382.667q-74.4.7-148.8,1.333Zm.067,2.067,217.867-2h137l-144.333,2Zm-.4,3.2,210.667-3H363.067l-141,3Zm-.2,4.733q103.2-2.3,206.467-4.533H358.267q-69.6,2.3-139.133,4.533Zm-.333,7.067,203.733-6.8H354.933q-69,3.4-137.933,6.8H15.133Zm0,10.667q101-5.1,201.933-10.133H352.933q-68.5,5.1-137.067,10.133ZM15,47.4,215.8,32.2H351.533Q283.233,39.8,215,47.4Zm-.067,24Q114.933,60,215,48.533H350.667q-68.1,11.4-136.2,22.867H14.933Zm-.067,35.933q99.8-17.1,199.533-34.267H350q-68,17.1-136,34.267Zm0,54,199.2-51.4H349.6l-135.8,51.4Zm0,80.867q99.5-38.5,198.933-77.067H346.4q-68.5,38.5-137.067,77.067Zm205.667,0q66.7-38.5,133.467-77.067H462.2q-41.5,38.5-82.933,77.067Zm170,0q39.7-38.5,79.4-77.067h108.2q-14.4,38.5-28.867,77.067Zm170,0q12.7-38.5,25.333-77.067h108.4q12.7,38.5,25.333,77.067Zm170.2,0q-14.4-38.5-28.867-77.067h108.2q39.7,38.5,79.4,77.067Zm169.933,0q-41.5-38.5-82.933-77.067h108.2q66.7,38.5,133.467,77.067Z" transform="translate(0.017 160)"/>
</svg>
