<svg xmlns="http://www.w3.org/2000/svg" xmlns:xlink="http://www.w3.org/1999/xlink" viewBox="46.29 5609.96 186.42 186.08">
  <defs>
    <style>
      .cls-1, .cls-2 {
        fill: none;
        stroke-width: 2px;
      }

      .cls-1 {
        stroke: #00bcd4;
      }

      .cls-2 {
        stroke: #e91e63;
      }

      .cls-3 {
        fill: #001652;
        stroke: rgba(0,0,0,0);
        stroke-width: 1px;
      }

      .cls-4 {
        filter: url(#Projects);
      }
    </style>
    <filter id="Projects" x="54.38" y="5622.822" width="171.152" height="47.072" filterUnits="userSpaceOnUse">
      <feOffset dx="1" dy="1" input="SourceAlpha"/>
      <feGaussianBlur result="blur"/>
      <feFlood flood-color="#fff"/>
      <feComposite operator="in" in2="blur"/>
      <feComposite in="SourceGraphic"/>
    </filter>
  </defs>
  <g id="group-38" transform="translate(3 5574)">
    <g id="group-11" transform="translate(47.968 38)">
      <path id="path-2" class="cls-1" d="M407.5,128,340,248H475Z" transform="translate(-342.968 -128)"/>
      <path id="path-2-2" data-name="path-2" class="cls-2" d="M67.5,0,0,120H135Z" transform="translate(180.032 182) rotate(180)"/>
    </g>
    <g class="cls-4" transform="matrix(1, 0, 0, 1, -3, -5574)">
      <path id="Projects-2" data-name="Projects" class="cls-3" d="M-68.808-12.864A9.968,9.968,0,0,0-64.68-15.6a12.041,12.041,0,0,0,2.88-8.208,12.081,12.081,0,0,0-2.88-8.256c-1.44-1.632-4.176-3.552-8.88-3.552H-84.12V0h5.568V-12.048h4.08L-65.5,0h6.288Zm-9.744-4.176V-30.576h4.992c2.3,0,4.032.624,5.136,1.872a7.119,7.119,0,0,1,1.584,4.9,7.074,7.074,0,0,1-1.584,4.848,6.554,6.554,0,0,1-5.136,1.92ZM-49.7-30.624h15.792v-4.992h-21.36V0h21.36V-5.04H-49.7V-16.08H-36.7v-5.04H-49.7Zm1.44-8.832h3.36l5.04-5.616H-44.9Zm37.776,27.312a10.663,10.663,0,0,0-3.12-4.656c-.768-.72-1.824-1.728-2.688-2.592L-22.248-25.1c-1.488-1.44-1.536-2.544-1.344-3.216A3.267,3.267,0,0,1-21-30.384c1.008-.192,2.88-.192,4.7,2.016l4.368-3.5a12,12,0,0,0-4.848-3.6,9.48,9.48,0,0,0-5.28-.384,9.279,9.279,0,0,0-4.272,2.016,8.118,8.118,0,0,0-2.64,3.984,7.624,7.624,0,0,0,.1,4.512,10.156,10.156,0,0,0,2.736,4.272l4.368,4.128c.192.192,2.784,2.736,4.368,4.224,1.008.96,2.112,2.4,1.632,4.032a4.716,4.716,0,0,1-3.744,2.976A5.471,5.471,0,0,1-22.776-6a7.943,7.943,0,0,1-3.5-2.784L-30.7-5.328a14.084,14.084,0,0,0,5.9,4.56A11.549,11.549,0,0,0-20.568,0a10.955,10.955,0,0,0,2.16-.192,10.316,10.316,0,0,0,8.016-6.96A8.434,8.434,0,0,0-10.488-12.144ZM6.264,0A14.393,14.393,0,0,0,15.1-2.832a11.62,11.62,0,0,0,3.168-3.84,12.656,12.656,0,0,0,1.2-5.424v-23.52H13.848V-12.1a5.754,5.754,0,0,1-2.16,4.848,9.111,9.111,0,0,1-5.424,1.68A8.9,8.9,0,0,1,.84-7.248,5.787,5.787,0,0,1-1.368-12.1v-23.52H-6.936V-12.1a11.991,11.991,0,0,0,1.2,5.424,10.56,10.56,0,0,0,3.168,3.84A14.393,14.393,0,0,0,6.264,0ZM58.152,0V-37.248L41.4-12.288,24.648-37.248V0h5.568V-18.912L41.4-2.3,52.536-18.912V0ZM69.24-30.624H85.032v-4.992H63.672V0h21.36V-5.04H69.24V-16.08H82.248v-5.04H69.24Zm1.44-8.832h3.36l5.04-5.616H74.04Z" transform="translate(139 5668.39)"/>
    </g>
  </g>
</svg>
