<svg xmlns="http://www.w3.org/2000/svg" xmlns:xlink="http://www.w3.org/1999/xlink" viewBox="48 1194 384 448">
  <defs>
    <style>
      .cls-1 {
        fill: #44cbdd;
      }

      .cls-2 {
        fill: url(#linear-gradient);
      }

      .cls-3 {
        fill: #fff;
      }
    </style>
    <linearGradient id="linear-gradient" x1="0.125" y1="0.086" x2="1.053" y2="0.808" gradientUnits="objectBoundingBox">
      <stop offset="0" stop-opacity="0.102"/>
      <stop offset="1" stop-opacity="0"/>
    </linearGradient>
  </defs>
  <g id="group-51" transform="translate(48 1194)">
    <path id="rectangle-2" class="cls-1" d="M0,0H384V448H0Z"/>
    <g id="group-49" transform="translate(75.733 51.2)">
      <path id="path-9" class="cls-2" d="M308.237,140.793c-.107-17.6-.213-28.585-.32-28.585C261.43,74.45,206.52,30.186,198.1,23.467L186.9,14.4c-3.945-2.986-7.57-6.72-12.368-8.32-8.85-2.986-18.552.213-26.549,4.053a84.834,84.834,0,0,0-13.648,8.319c-2.346,1.813-4.8,3.52-7.037,5.546-1.066.853-2.346,1.92-3.519,2.986-.533.533-1.279,1.067-1.813,1.6s-.746.853-1.386.533a25.081,25.081,0,0,1-3.519-3.2c-1.279-1.067-2.666-2.347-3.945-3.413-2.452-2.133-5.118-4.48-7.57-6.72-12.262-10.773-35.5-24.852-48.726-8-5.011,6.186-6.5,14.719-7.037,22.505-.853,11.519.853,23.039,3.412,34.238C47.441,65.7,41.79,67.2,36.14,68.9c-8.85,2.88-17.912,6.613-25.163,12.586C5.646,85.756,1.274,91.409.208,98.662c-1.279,10.986,7.037,18.986,13.648,26.558,6.184,7.253,12.368,14.719,18.552,21.972,2.985,3.733,6.184,7.253,9.169,10.986a6.529,6.529,0,0,1,1.6,1.813c.533.747.32.853.213,1.813-.213,1.6-.533,3.2-.746,4.8a78.715,78.715,0,0,0-.746,8.639,54.832,54.832,0,0,0,1.813,15.039c1.279,4.48,3.732,7.786,6.5,11.306,13.114,16.106,144.9,177.8,158.226,193.908a15.2,15.2,0,0,0,1.173,1.28h50.325c2.559-1.493,4.8-2.987,7.037-4.48,2.132-1.6,5.011-2.986,5.331-5.973.32-2.453-1.279-3.946-2.665-5.653-2.666-2.986-47.446-53.117-47.66-53.863-.32-.853.746-2.987,1.066-3.946l1.6-4.266c1.279-3.2,2.666-6.4,3.945-9.386,1.386,1.493,53.2,60.156,79.646,84.475a6.582,6.582,0,0,1,.107-.96V140.793Z" transform="translate(-0.077 0.022)"/>
      <g id="group-18_1_" transform="translate(0.333 0.005)">
        <path id="path-2_1_" class="cls-3" d="M79-303.905C57.9-312.97,29.548-318.836-.719-320.222c-4.8-.213-9.592-.32-13.961-.32C7.807-348.057,31.68-366.4,47.453-366.933a13.138,13.138,0,0,1,7.993,1.92c6.714,4.479,8.633,17.063,5.329,34.767a4.112,4.112,0,0,0,3.091,5.012c.107,0,.32.107.426.107a4.273,4.273,0,0,0,5.116-3.306v-.213c4.263-21.969,1.279-37.22-9.166-43.725a22.825,22.825,0,0,0-13.109-3.413c-19.61.746-47.639,22.182-73.111,55.243a219.382,219.382,0,0,0-31.333,2.879,123.357,123.357,0,0,1-2.664-15.25c-2.451-20.049.746-33.807,8.526-37.753a15.5,15.5,0,0,1,4.476-1.28c6.714-.533,15.986,3.946,26.218,12.264a4.394,4.394,0,0,0,6.181-.533,4.4,4.4,0,0,0-.533-6.185c-12.256-10.132-23.34-14.931-32.612-14.4a18.068,18.068,0,0,0-7.78,2.133c-11.51,5.865-16.093,22.5-13.322,46.818.533,5.012,1.6,10.238,2.664,15.57-31.546,6.4-51.689,19.09-52.542,35.087-.533,11.3,8.313,21.969,25.9,31.034a4.518,4.518,0,0,0,5.968-1.92,4.492,4.492,0,0,0-1.918-5.972c-13.961-7.039-21.422-15.25-21.1-22.716.533-10.451,17.159-21.116,46.041-26.981a275.826,275.826,0,0,0,10.231,29.968c-22.487,42.339-32.4,86.81-12.363,99.928A21.083,21.083,0,0,0-53.9-174.437c9.059,0,20.036-4.479,32.186-13.331a4.435,4.435,0,0,0,1.066-6.186,4.429,4.429,0,0,0-6.181-1.066h0c-14.921,10.665-27.5,14.184-34.317,9.7-7.247-4.8-9.059-18.77-4.476-38.5,2.984-13.437,8.633-28.368,16.519-43.618,1.918,4.266,3.943,8.532,5.968,12.8,13.855,26.982,30.587,50.55,47.426,66.121,13.429,12.371,25.9,18.983,36.129,18.983a21.588,21.588,0,0,0,9.379-2.133c10.977-5.652,15.773-21.223,13.429-44.152-2.132-21.223-10.231-47.351-22.7-73.373a4.456,4.456,0,0,0-5.862-2.24,4.461,4.461,0,0,0-2.238,5.866.1.1,0,0,0,.107.107c12.043,24.955,19.823,50.124,21.955,70.386,1.918,18.77-1.279,31.567-8.633,35.407-7.78,3.946-20.676-1.6-35.383-15.464-16.093-14.93-32.186-37.539-45.508-63.668-3.2-6.185-5.968-12.371-8.633-18.556,3.2-5.866,6.714-11.838,10.658-17.7,3.73-5.866,7.78-11.518,11.83-16.85h3.73c5.329,0,10.764.213,16.839.32,29.2,1.6,56.485,7.039,76.628,15.784,18.544,7.785,28.882,17.383,28.349,26.235-.32,7.465-8.846,14.931-23.34,20.37a4.305,4.305,0,0,0-2.558,5.546v.107a4.364,4.364,0,0,0,4.05,2.879,4.274,4.274,0,0,0,1.6-.32c18.438-7.039,28.562-16.85,28.989-28.368C113.53-281.936,101.487-294.414,79-303.905Zm-119.9,4.053c-2.451,3.946-5.009,8-7.46,12.051a209.109,209.109,0,0,1-7.034-21.436c6.927-1.067,14.388-1.813,22.274-2.346C-35.57-307.638-38.234-303.8-40.9-299.853Zm38.58,12.9A13.331,13.331,0,0,1,11-273.618,13.331,13.331,0,0,1-2.318-260.287,13.331,13.331,0,0,1-15.64-273.618,13.47,13.47,0,0,1-2.318-286.949Z" transform="translate(118.721 380.837)"/>
      </g>
    </g>
  </g>
</svg>
