<svg xmlns="http://www.w3.org/2000/svg" xmlns:xlink="http://www.w3.org/1999/xlink" viewBox="848 1194 384 448">
  <defs>
    <style>
      .cls-1 {
        fill: url(#linear-gradient);
      }

      .cls-2 {
        fill: url(#linear-gradient-2);
      }
    </style>
    <linearGradient id="linear-gradient" x1="-2.875" y1="0.77" x2="3.875" y2="0.23" gradientUnits="objectBoundingBox">
      <stop offset="0" stop-color="#c5cbe9"/>
      <stop offset="1" stop-color="#b2ece4"/>
    </linearGradient>
    <linearGradient id="linear-gradient-2" x1="0.083" y1="0.773" x2="0.92" y2="0.228" gradientUnits="objectBoundingBox">
      <stop offset="0" stop-color="#a489d4"/>
      <stop offset="1" stop-color="#f48caf"/>
    </linearGradient>
  </defs>
  <g id="group-53" transform="translate(848 1194)">
    <g id="group">
      <rect id="rectangle" class="cls-1" width="384" height="448"/>
    </g>
    <g id="Sidebar_Logo_copy" transform="translate(92 64)">
      <path id="path" class="cls-2" d="M135.489,214.28c1.871-.625,3.118-.625,4.988-1.251,1.247-.626,3.118-.626,4.365-1.251,1.871-.625,3.118-1.251,4.988-1.877,1.247-.625,3.118-1.251,4.365-1.876s3.118-1.251,4.365-1.876,3.118-1.251,4.365-2.5c1.247-.625,2.494-1.876,3.741-2.5s3.118-1.876,4.365-2.5c1.247-1.251,3.118-1.876,4.365-3.127,1.247-.625,2.494-1.876,3.741-2.5a98.361,98.361,0,0,0,36.789-76.935C215.925,61.035,171.03,16,116.159,16,84.982,16,57.546,30.386,38.84,52.9a13.089,13.089,0,0,0-2.494,3.753,26.476,26.476,0,0,0-3.118,4.378c-1.247,1.251-1.871,3.127-2.494,4.378s-1.871,2.5-2.494,3.753-1.247,3.127-2.494,4.378c-.624,1.251-1.247,3.127-1.871,4.378S22.628,81.051,22,82.3c-.624,1.876-1.247,3.127-1.871,5-.624,1.251-.624,3.127-1.247,4.378-.624,1.876-.624,3.128-1.247,5a15.59,15.59,0,0,0-.624,5c0,1.251-.624,3.127-.624,4.378a107.258,107.258,0,0,0,0,20.016c0,1.251.624,3.127.624,4.378,0,1.876.624,3.753.624,5,.624,1.876.624,3.127,1.247,5,.624,1.251.624,3.127,1.247,4.378.624,1.876,1.247,3.128,1.871,5,.624,1.251,1.247,3.127,1.871,4.378s1.247,3.127,1.871,4.378,1.247,3.127,2.494,4.378c.624,1.251,1.871,2.5,2.494,3.753s1.871,3.127,2.494,4.379c1.247,1.251,1.871,3.127,3.118,4.378.624,1.251,1.871,2.5,2.494,3.753,4.365,5,8.73,10.008,13.718,13.761a13.042,13.042,0,0,0,3.741,2.5,26.392,26.392,0,0,0,4.365,3.127c1.247,1.251,3.118,1.876,4.365,2.5s2.494,1.876,3.741,2.5,3.118,1.251,4.365,2.5c1.247.625,3.118,1.251,4.365,1.876s3.118,1.251,4.365,1.876c1.871.626,3.118,1.251,4.988,1.877,1.247.625,3.118.625,4.365,1.251,1.871.626,3.118.626,4.988,1.251a15.451,15.451,0,0,0,4.988.625c1.247,0,3.118.626,4.365.626a106.277,106.277,0,0,0,19.953,0c1.247,0,3.118-.626,4.365-.626C132.371,214.905,133.618,214.28,135.489,214.28ZM116.159,28.51c48.012,0,87.3,39.406,87.3,87.568A87.564,87.564,0,0,1,177.889,178L54.429,54.155A87.019,87.019,0,0,1,116.159,28.51Z" transform="translate(-15.925 -16)"/>
    </g>
  </g>
</svg>
