<svg id="group-3" xmlns="http://www.w3.org/2000/svg" viewBox="0 0 384 448">
  <defs>
    <style>
      .cls-1 {
        fill: #fff;
      }

      .cls-2 {
        fill: #333;
      }
    </style>
  </defs>
  <rect id="rectangle-2" class="cls-1" width="384" height="448"/>
  <path id="path" class="cls-2" d="M114.223,8.122a106.1,106.1,0,1,1-106.1,106.1,106.1,106.1,0,0,1,106.1-106.1m0-8.122A114.223,114.223,0,1,0,228.445,114.223,114.353,114.353,0,0,0,114.223,0m18.588,22.777C123.5,21.085,101,55.267,93.552,76.081a50.738,50.738,0,0,0-1.861,8.883s5.828,12.542,7.445,15.483c-2.707-1.41-8.32-12.275-8.32-12.275-2.707,5.161-5.3,28.859-4.456,33.259,0,0,6.034,8.979,8.377,11.224-3.215-1.072-8.63-8.348-8.63-8.348-1.016,3.13-.817,9.644-.338,11.845,4.061,5.923,9.476,6.6,9.476,6.6s-5.923,59.058,3.046,63.457c5.584-1.184,6.938-66,6.938-66s6.769.508,8.292-1.184c3.441-2.369,11.445-26.971,11.563-30.521,0,0-9.29,1.742-13.82,3.5,3.414-3.391,14.322-5.668,14.322-5.668,2.958-3.551,9.183-27.705,9.811-35.151a37.927,37.927,0,0,0,.239-7.494s-8.871,1.943-10.721,1.271c1.878-.211,10.943-3.694,10.943-3.694,1.607-14.468,2.1-37.561-3.046-38.5ZM100.346,175.988c-.709,17.4-1.155,22.313-1.887,26.415-.338.765-.676.89-1.016-.085-3.1-14.271-2.877-121.752,32.49-170.657C109.365,69.223,100.008,141.3,100.346,175.988Z" transform="translate(77.777 32)"/>
</svg>
