<svg id="group-61" xmlns="http://www.w3.org/2000/svg" xmlns:xlink="http://www.w3.org/1999/xlink" viewBox="132 -1062 384 448">
  <defs>
    <style>
      .cls-1 {
        fill: #151515;
      }

      .cls-2 {
        fill: none;
        stroke: rgba(255,255,255,0.34);
        stroke-width: 1px;
      }

      .cls-3 {
        fill: #00bcd4;
      }

      .cls-4 {
        fill: #e91e63;
      }

      .cls-5 {
        fill: #fff;
      }

      .cls-6 {
        fill: #001652;
      }

      .cls-7 {
        filter: url(#path-2);
      }
    </style>
    <filter id="path-2" x="158.539" y="-1057.493" width="330.665" height="286.493" filterUnits="userSpaceOnUse">
      <feOffset input="SourceAlpha"/>
      <feGaussianBlur stdDeviation="3.5" result="blur"/>
      <feFlood flood-color="#fff" flood-opacity="0.961"/>
      <feComposite operator="in" in2="blur"/>
      <feComposite in="SourceGraphic"/>
    </filter>
  </defs>
  <rect id="rectangle-14" class="cls-1" width="384" height="448" transform="translate(132 -1062)"/>
  <g id="group-44" transform="translate(-155 -1118)">
    <g class="cls-7" transform="matrix(1, 0, 0, 1, 155, 1118)">
      <path id="path-2-2" data-name="path-2" class="cls-2" d="M493.962,128,340,392H647.924Z" transform="translate(-170.09 -1174)"/>
    </g>
    <g id="group-2" transform="translate(309 159.656)">
      <path id="path" class="cls-3" d="M45.557,13.73a3.965,3.965,0,0,0-1.129,1.65,2.836,2.836,0,0,0,.257,2.166h.872V13.73M38.474,11.1H18.1V56.991h7.134V36.314H41.913v-6.5H25.234V17.545h12.06a9.562,9.562,0,0,1,.257-4.177,9.583,9.583,0,0,1,.924-2.269" transform="translate(-8.811 -5.377)"/>
      <path id="path-2-3" data-name="path" class="cls-3" d="M109.914,43.533v8.353h-1.848l3.849,5.156h8.057L109.914,43.533m-14.78-.155A12.949,12.949,0,0,1,88,50.7v6.291h7.134V43.378M88,37.448v4.28a10.324,10.324,0,0,0,.513-1.083,4.075,4.075,0,0,0-.513-3.2m21.914-24.234V23.733a12.3,12.3,0,0,1,.257,2.63,11.848,11.848,0,0,1-.257,2.578V39.408a12.833,12.833,0,0,0,3.028-2.475,15.582,15.582,0,0,0,3.7-10.57,15.441,15.441,0,0,0-3.7-10.622,10.966,10.966,0,0,0-3.028-2.527M101.549,11.1H93.029L88,15.173V27.033c1.078,1.083,2.309,2.269,3.285,3.145a13.841,13.841,0,0,1,4,5.981,10.78,10.78,0,0,1,.411,5.259h4.721l2.412,3.248V35.025a9.842,9.842,0,0,1-1.232.052H95.185V17.6H101.6a9.842,9.842,0,0,1,1.232.052v-6.5c-.462,0-.872-.052-1.283-.052" transform="translate(-42.838 -5.377)"/>
      <path id="path-3" data-name="path" class="cls-3" d="M192.869,46.047a15.453,15.453,0,0,1-10.418,3.97h-.308v2.011H168.081a21.513,21.513,0,0,0,5.543,3.352,22.592,22.592,0,0,0,8.878,1.8,23.03,23.03,0,0,0,8.93-1.8A21.419,21.419,0,0,0,195.9,52.8l-3.028-6.755m12.368-13.612-7.852,19.181c.411-.361.872-.773,1.283-1.186a23.163,23.163,0,0,0,6.672-16.242c0-.567-.051-1.134-.1-1.753M177.883,11.758a24.608,24.608,0,0,0-4.311,1.341,22.71,22.71,0,0,0-7.288,4.9A27.543,27.543,0,0,0,163,22.122V45.583h8.468l-.154-.155a15.763,15.763,0,0,1,9.494-26.812l-2.925-6.858m7.749-.258,3.644,8.508a16.061,16.061,0,0,1,8.776,11.859l3.9-9.8a24.279,24.279,0,0,0-3.233-4.125,23.886,23.886,0,0,0-7.288-4.9,29.236,29.236,0,0,0-5.8-1.547" transform="translate(-79.347 -5.57)"/>
      <path id="path-4" data-name="path" class="cls-3" d="M297.073,50.82h-6.62l5.132,5.672h.154a10.259,10.259,0,0,1,1.283.052V50.82m.051-39.5h-7.185V23.6h4.054v6.5h-4.054v9.436l-8.571-9.436h-4.054V36.28l7.339,8.044h12.522v-33m-35-2.423-.924,2.32V55.977h7.134V26.431l1.8,1.959V17.717L262.124,8.9" transform="translate(-127.15 -4.311)"/>
      <path id="path-5" data-name="path" class="cls-3" d="M363.759,50.391a14.109,14.109,0,0,1-3.592,1.238,12.613,12.613,0,0,1-2.771.258h-.872v5.156h7.185V50.391m-7.134-19.7V44.616c.257,0,.462.052.718.052a6.936,6.936,0,0,0,1.488-.155A6.015,6.015,0,0,0,363.6,40.7c.616-2.114-.821-3.97-2.1-5.208-1.54-1.444-3.8-3.661-4.927-4.8M347.592,11.1H344v6.445h2.361a9.563,9.563,0,0,1,.257-4.177,12.6,12.6,0,0,1,.975-2.269m26.738,0H368.07l-5.183,4.177a6.268,6.268,0,0,0-4.978-2.681,5.269,5.269,0,0,0-1.026.1,4.161,4.161,0,0,0-3.336,2.681,2.836,2.836,0,0,0,.257,2.166h2.771v3.2l6.364,6.136.873.877V17.545h12.522V12.389h-1.95V11.1" transform="translate(-167.457 -5.377)"/>
      <path id="path-6" data-name="path" class="cls-3" d="M443.664,29.817H431.039v6.5h12.625v-6.5M423.8,12.389h-4V57.042h27.405v-6.5H430.988v1.341H423.8v-39.5m23.4-1.289h-3.644v1.289H430.988v5.156h16.217V11.1" transform="translate(-204.355 -5.377)"/>
      <path id="path-7" data-name="path" class="cls-3" d="M496.577,36.314h-5.235v15.52H489.7v5.156h7.134V36.675l-.257-.361m-3.7-23.873h-1.54V29.869h5.491V27.5l2.1,2.32a7.79,7.79,0,0,0,5.389-2.423,7.409,7.409,0,0,0,.924-1.289L492.882,12.441M521.776,11.1h-3.387V40.542L509.766,31c-.205.258-.41.464-.616.722a12.744,12.744,0,0,1-5.235,3.506L525.625,59.1V51.886h-3.8V11.1" transform="translate(-238.382 -5.377)"/>
      <path id="path-8" data-name="path" class="cls-3" d="M585.284,31.3h-7.134V45.534h7.134V31.3m6.928-19.9v1.134H578.151V24.806h7.134V18.413h3.7c5.286,0,9.289,1.5,12.009,4.538,2.412,2.681,3.7,6.548,3.7,11.241,0,4.641-1.283,8.611-3.7,11.241a14.29,14.29,0,0,1-8.827,4.331V51.98H578.1v5.156h10.829a26.369,26.369,0,0,0,9.956-1.8,19.342,19.342,0,0,0,7.339-5.053c3.644-4.022,5.543-9.591,5.543-16.087s-1.9-12.066-5.543-16.088a18.07,18.07,0,0,0-7.339-5.053,22.63,22.63,0,0,0-6.672-1.65" transform="translate(-281.414 -5.522)"/>
      <path id="path-9" data-name="path" class="cls-3" d="M7.134,149.823V118.267h3.7c5.286,0,9.289,1.5,12.009,4.537,2.412,2.681,3.7,6.548,3.7,11.241,0,4.641-1.283,8.611-3.7,11.241-2.72,2.991-6.723,4.538-12.009,4.538h-3.7m3.7-38.723H0v45.891H10.829a26.37,26.37,0,0,0,9.956-1.8,19.344,19.344,0,0,0,7.339-5.053c3.644-4.022,5.543-9.591,5.543-16.087s-1.9-12.066-5.543-16.088a18.069,18.069,0,0,0-7.339-5.053,25.4,25.4,0,0,0-9.956-1.8" transform="translate(0 -53.814)"/>
      <path id="path-10" data-name="path" class="cls-3" d="M102.5,132.086H84.285v19.8H81v5.156h27.405v-5.156h-5.9v-1.341H88.134V136.314H102.5v-4.228m0-20.986H84.285v14.438h3.849v-8.044H102.5V111.1" transform="translate(-39.43 -53.814)"/>
      <path id="path-11" data-name="path" class="cls-3" d="M168.364,151.886h-6.107l3.131,7.219,2.977-7.219M157.279,122.65v2.011h.872l-.872-2.011m-7.134-11.55H144.5l5.645,12.891V111.1m34.847,0H177.5v1.289h-.77l-4.875,12.272h2.053v6.5h-4.67l-4.054,10.209-4.362-10.209h-3.644v9.23l2.155,5h11.547L184.992,111.1" transform="translate(-70.342 -53.814)"/>
      <path id="path-12" data-name="path" class="cls-3" d="M242.78,136.314h-5.235v15.52H235.8v5.156h27.405v-6.5h-1.848l.975,1.341h-8.057l-.975-1.341H242.934V136.52l-.154-.206m16.833-6.5H256.79a13.717,13.717,0,0,1-1.437,1.959,12.476,12.476,0,0,1-5.286,3.506l.77,1.031h8.827v-6.5m-15.7-17.377h-6.415v17.428h6.415c.616,0,1.129-.052,1.694-.1h-2.72V117.494h9.135a6.758,6.758,0,0,0-1.54-2.681c-1.386-1.547-3.592-2.372-6.569-2.372m19.245-1.341h-7.339a14.226,14.226,0,0,1,2.874,6.445h4.516V111.1" transform="translate(-114.786 -53.814)"/>
      <path id="path-13" data-name="path" class="cls-3" d="M312.834,137.573h-1.745v15.52H305.7v5.156h26.225v-5.156h-4.106l-.975-1.341H312.834v-14.18m0-23.873h-1.745v17.428h1.745V113.7" transform="translate(-148.813 -55.073)"/>
      <path id="path-14" data-name="path" class="cls-3" d="M388.833,113.6H374.258v7.58a15.57,15.57,0,0,1,18.065,2.991,15.737,15.737,0,0,1,0,22.275l-.154.155h2.361v6.5H367.125V142.166a15.576,15.576,0,0,1,0-13.716V117.261a16.693,16.693,0,0,0-2,1.8,24.172,24.172,0,0,0-4.927,7.322,23.328,23.328,0,0,0-1.8,8.972,23.119,23.119,0,0,0,14.011,21.192,22.591,22.591,0,0,0,8.879,1.8,23.03,23.03,0,0,0,8.93-1.8,24.049,24.049,0,0,0,7.287-4.95,22.83,22.83,0,0,0,4.875-7.322,17.725,17.725,0,0,0,.667-1.753V128.141a17.715,17.715,0,0,0-.667-1.753,22.591,22.591,0,0,0-12.163-12.22,7.846,7.846,0,0,0-1.386-.567" transform="translate(-174.467 -55.025)"/>
      <path id="path-15" data-name="path" class="cls-3" d="M466.382,136.508H463.2v20.677h7.134V141.87l-3.952-5.363m1.18-23.873H463.2v17.428h4.362a12.142,12.142,0,0,0,2.822-.309V117.688h5.286a6.757,6.757,0,0,0-1.54-2.681c-1.437-1.547-3.644-2.372-6.569-2.372m12.009-1.134a15.5,15.5,0,0,1,2.977,7.941c.308.258.616.516.872.773a9.568,9.568,0,0,1,2.053,6.239,9.337,9.337,0,0,1-2.053,6.291c-1.488,1.6-3.7,2.423-6.672,2.423h-2.361l-.77.309,4.568,6.136c5.132-.361,8.211-2.578,9.9-4.538a17.114,17.114,0,0,0,0-21.244,13.518,13.518,0,0,0-8.519-4.331" transform="translate(-225.482 -54.008)"/>
      <path id="path-16" data-name="path" class="cls-3" d="M537.634,142.038h-3.849l-3.285,8.353v6.652h27.405v-5.156h-3.952l-.513-1.341H537.685v-8.508m7.493-12.22h-6.466l-2.309,5.775h11.085l-2.309-5.775m9.135,0h-1.694l1.694,4.125v-4.125m-15.4-18.717H530.5v20.316l8.417-20.316m18.989,0H544.921l2.669,6.445h10.316V111.1" transform="translate(-258.243 -53.814)"/>
      <path id="path-17" data-name="path" class="cls-3" d="M607.485,135.077V117.648H613.9c2.977,0,5.183.825,6.569,2.423a10.586,10.586,0,0,1,0,12.53c-1.437,1.6-3.644,2.475-6.569,2.475h-6.415m6.364-23.977H600.3v45.891h7.134V141.47h5.235l11.5,15.52h8.057l-12.317-16.6a12.616,12.616,0,0,0,5.286-3.506,17.04,17.04,0,0,0,0-21.192c-1.8-2.114-5.286-4.589-11.342-4.589" transform="translate(-292.222 -53.814)"/>
      <path id="path-18" data-name="path" class="cls-4" d="M77.976,36.094h-.513V38c.1-.258.154-.516.257-.773a7.348,7.348,0,0,0,.257-1.134m-20.631-.928L51.7,39.6a18.031,18.031,0,0,0,7.6,5.878,15.15,15.15,0,0,0,5.44.98,12.612,12.612,0,0,0,2.771-.258,15.629,15.629,0,0,0,2.874-.877V36.352a6.736,6.736,0,0,1-4.311,2.784,6.936,6.936,0,0,1-1.488.155,7.083,7.083,0,0,1-2.72-.516,9.943,9.943,0,0,1-4.516-3.609m3.7-23H53.65a9.693,9.693,0,0,0,.411,1.65,13.722,13.722,0,0,0,3.49,5.517l5.594,5.311c.257.258,3.592,3.506,5.594,5.466a9.824,9.824,0,0,1,1.591,1.959V21.656l-.205-.206-7.6-7.322a6.354,6.354,0,0,1-1.488-1.959M65.249,0a13.871,13.871,0,0,0-2.515.258,11.79,11.79,0,0,0-5.491,2.578,10.782,10.782,0,0,0-2.412,2.888h7.031v2.63a4.856,4.856,0,0,1,2.207-1.031,6.29,6.29,0,0,1,1.026-.1A6.425,6.425,0,0,1,70.073,9.9l.257-.1V5.775h5.029l.411-.309A15.656,15.656,0,0,0,69.56.825,11.628,11.628,0,0,0,65.249,0" transform="translate(-25.167)"/>
      <path id="path-19" data-name="path" class="cls-5" d="M63.651,11.1H56.569a9.583,9.583,0,0,0-.924,2.269,9.513,9.513,0,0,0-.257,4.177h7.39a3.114,3.114,0,0,1-.257-2.166,3.2,3.2,0,0,1,1.129-1.65V11.1" transform="translate(-26.906 -5.377)"/>
      <path id="path-20" data-name="path" class="cls-5" d="M88,27.033V37.4a4.2,4.2,0,0,1,.513,3.248A3.46,3.46,0,0,1,88,41.728V50.7a13.1,13.1,0,0,0,7.134-7.322V41.47h.513a10.78,10.78,0,0,0-.411-5.259,13.55,13.55,0,0,0-4-5.981c-.872-.877-2.155-2.114-3.233-3.2M93.029,11.1H88v4.073L93.029,11.1" transform="translate(-42.838 -5.377)"/>
      <path id="path-21" data-name="path" class="cls-4" d="M116.8,39.875v7.116h5.286L116.8,39.875m7.134-5.311a13.12,13.12,0,0,1-2.258,1.083l2.258,3.094V34.564M116.8,12.8V30.13a7.561,7.561,0,0,0,5.337-2.423,7.9,7.9,0,0,0,1.8-3.661V18.889a7.037,7.037,0,0,0-1.8-3.661A7.362,7.362,0,0,0,116.8,12.8m7.134-11.7H116.8V6.308a15.413,15.413,0,0,1,7.134,2.063V1.1" transform="translate(-56.857 -0.533)"/>
      <path id="path-22" data-name="path" class="cls-5" d="M123.934,28.938a7.23,7.23,0,0,1-1.8,3.661,7.767,7.767,0,0,1-5.337,2.423v9.745l5.286,7.116h1.848v-8.3l-2.258-3.094a13.124,13.124,0,0,0,2.258-1.083V28.938M116.8,11.2v6.5a7.528,7.528,0,0,1,5.337,2.372,7.9,7.9,0,0,1,1.8,3.661V13.262A15.413,15.413,0,0,0,116.8,11.2" transform="translate(-56.857 -5.425)"/>
      <path id="path-23" data-name="path" class="cls-4" d="M175.425,40.545H164.8a15.782,15.782,0,0,0,10.623,4.486V40.545M156.334,1.1H149.2V46.991h12.163c-.616-.516-1.18-1.031-1.745-1.6A22.918,22.918,0,0,1,152.9,29.15a23.327,23.327,0,0,1,1.8-8.972,22.813,22.813,0,0,1,1.642-3.145V1.1" transform="translate(-72.629 -0.533)"/>
      <path id="path-24" data-name="path" class="cls-5" d="M159.839,32.1a26.2,26.2,0,0,0-1.642,3.145,23.327,23.327,0,0,0-1.8,8.972,22.918,22.918,0,0,0,6.723,16.242c.565.567,1.129,1.083,1.745,1.6H178.93V60.047a15.782,15.782,0,0,1-10.623-4.486h-8.468V32.1" transform="translate(-76.134 -15.548)"/>
      <path id="path-25" data-name="path" class="cls-4" d="M209.165,46.578l-1.54,1.238.565,1.237.975-2.475M194.231,13.423c-.513,0-1.078.052-1.591.1l12.009,27.483a4.113,4.113,0,0,0,.667-.67A15.637,15.637,0,0,0,209.935,29.2a17.826,17.826,0,0,0-.154-2.372l-1.8,4.537-6.98-16.345a15.069,15.069,0,0,0-6.774-1.6M195.1,1.1h-7.9l2.463,5.62a22.507,22.507,0,0,1,4.567-.464,20.83,20.83,0,0,1,3.131.206L195.1,1.1m32.64,0h-7.749l-6.313,15.933a23.421,23.421,0,0,1,1.642,3.2,22.872,22.872,0,0,1,1.694,7.116l8.16-19.955v-3.3l.924,1.031L227.743,1.1" transform="translate(-91.128 -0.533)"/>
      <path id="path-26" data-name="path" class="cls-5" d="M216.018,21.928l-3.9,9.8a17.818,17.818,0,0,1,.154,2.372,15.637,15.637,0,0,1-4.619,11.138l-.667.67,2.977,6.806a16.183,16.183,0,0,0,1.54-1.238l7.852-19.233a24.024,24.024,0,0,0-1.694-7.116,26.606,26.606,0,0,0-1.642-3.2M196.568,11.1a22.505,22.505,0,0,0-4.567.464l2.977,6.806c.513-.052,1.078-.1,1.591-.1a15.347,15.347,0,0,1,6.774,1.547L199.7,11.306a30.89,30.89,0,0,0-3.131-.206" transform="translate(-93.464 -5.377)"/>
      <path id="path-27" data-name="path" class="cls-6" d="M261.2,6.9v3.352l.924-2.32L261.2,6.9" transform="translate(-127.15 -3.342)"/>
      <path id="path-28" data-name="path" class="cls-4" d="M306.005,40.545h-.411v6.5h.411v-6.5M278.6,24.612V46.991h20.374l-5.9-6.5h-7.339V32.5L278.6,24.612M306.005,1.1H278.6V13.939l11.239,12.375h8.571v-6.5H285.785V7.545H298.41V6.256h7.185V7.545h.411V1.1" transform="translate(-135.62 -0.533)"/>
      <path id="path-29" data-name="path" class="cls-5" d="M305.543,45.389H293.021l5.9,6.5h6.62v-6.5m-3.131-20.728h-4.054v6.5h4.054v-6.5M278.6,18.783V29.456l7.134,7.889V31.158h4.054L278.6,18.783M305.543,11.1h-7.185v1.289h7.185V11.1" transform="translate(-135.62 -5.377)"/>
      <path id="path-30" data-name="path" class="cls-4" d="M350.545,35.166,344.9,39.6a18.032,18.032,0,0,0,7.6,5.878,15.056,15.056,0,0,0,4.568.98V39.239a6.423,6.423,0,0,1-1.95-.516,9.372,9.372,0,0,1-4.567-3.558M364.2,22.378V45.066a12.776,12.776,0,0,0,6.723-7.734,11.037,11.037,0,0,0-.1-6.445,13.55,13.55,0,0,0-4-5.981c-.77-.773-1.745-1.65-2.617-2.527M354.24,12.169h-7.39a9.708,9.708,0,0,0,.411,1.65,13.721,13.721,0,0,0,3.49,5.517l5.594,5.311.667.67V15.366l-1.283-1.238a6.353,6.353,0,0,1-1.488-1.959M358.449,0a13.872,13.872,0,0,0-2.515.258,11.79,11.79,0,0,0-5.491,2.578,10.782,10.782,0,0,0-2.412,2.888h20.477l.41-.309a15.655,15.655,0,0,0-6.21-4.641A12.192,12.192,0,0,0,358.449,0" transform="translate(-167.895)"/>
      <path id="path-31" data-name="path" class="cls-5" d="M358.7,20.742v9.952c1.129,1.134,3.387,3.352,4.927,4.8,1.283,1.237,2.72,3.094,2.1,5.208a6.015,6.015,0,0,1-4.824,3.816,6.936,6.936,0,0,1-1.488.155,3.372,3.372,0,0,1-.718-.052v7.219h.872a12.613,12.613,0,0,0,2.771-.258,14.108,14.108,0,0,0,3.592-1.237V27.652l-.872-.877L358.7,20.742M370.2,11.1H349.72a12.6,12.6,0,0,0-.975,2.269,9.514,9.514,0,0,0-.257,4.177h7.39a3.114,3.114,0,0,1-.257-2.166,4.252,4.252,0,0,1,3.336-2.681,6.29,6.29,0,0,1,1.026-.1,6.425,6.425,0,0,1,4.978,2.681L370.2,11.1" transform="translate(-169.585 -5.377)"/>
      <path id="path-32" data-name="path" class="cls-4" d="M422.91,31.47h-4.054V45.7h4.054V31.47m0-18.769h-4.054V24.973h4.054V12.7M435.432,1.1H403.1V6.256h1.95V7.545h6.569V6.256h23.762V1.1" transform="translate(-196.226 -0.533)"/>
      <path id="path-33" data-name="path" class="cls-6" d="M405.1,11.1h-2v1.289h2V11.1" transform="translate(-196.226 -5.377)"/>
      <path id="path-34" data-name="path" class="cls-5" d="M443.562,11.1H419.8v1.289h4v39.5h7.236V50.545h-4.106V36.314h4.106v-6.5h-4.106V17.545h4.106V12.389h12.522V11.1" transform="translate(-204.356 -5.377)"/>
      <path id="path-35" data-name="path" class="cls-4" d="M493.729,25.025a9.043,9.043,0,0,1-1.18.052h-.924v6.755l11.29,15.211h8.057l-12.317-16.6h.051l-4.978-5.414M492.549,1.1H479V46.991h5.491V4.091L487.673,7.6h4.875c2.977,0,5.183.825,6.569,2.423a9.078,9.078,0,0,1,2.053,6.291,10.831,10.831,0,0,1-1.078,4.95l4.465,4.9a15.97,15.97,0,0,0,3.079-9.848,15.441,15.441,0,0,0-3.7-10.622C502.094,3.575,498.553,1.1,492.549,1.1" transform="translate(-233.174 -0.533)"/>
      <path id="path-36" data-name="path" class="cls-5" d="M505.25,24.07a7.393,7.393,0,0,1-.924,1.289,7.789,7.789,0,0,1-5.389,2.423l4.927,5.414a12.4,12.4,0,0,0,5.235-3.506,8.936,8.936,0,0,0,.616-.722l-4.465-4.9M489.7,6.9V49.8h1.642V34.28h5.235l.257.309v-6.7h-5.491V10.406h1.54L489.7,6.9" transform="translate(-238.382 -3.342)"/>
      <path id="path-37" data-name="path" class="cls-4" d="M579.605,40.545h-6.877v4.486h3.7a20.631,20.631,0,0,0,3.182-.206v-4.28m-3.593-20.728h-3.336v6.5h3.336v-6.5M579.605,1.1H552.2V6.256H556V46.991h9.546V40.545h-6.21V26.314h6.21v-6.5h-6.21V7.545h6.21V6.256h10.829c1.078,0,2.155.052,3.182.155V1.1" transform="translate(-268.807 -0.533)"/>
      <path id="path-38" data-name="path" class="cls-5" d="M556,11.1h-3.8V51.886H556V11.1" transform="translate(-268.807 -5.377)"/>
      <path id="path-39" data-name="path" class="cls-5" d="M585.334,45.389H578.2v6.5h14.062V49.669a21.068,21.068,0,0,1-3.182.206h-3.7V45.389m-.051-20.728H578.2v6.5h7.134v-6.5m3.7-13.561H578.2v1.289h14.062V11.255a32.368,32.368,0,0,0-3.233-.155" transform="translate(-281.464 -5.377)"/>
      <path id="path-40" data-name="path" class="cls-4" d="M80.634,101.1H73.5v45.891h3.849V106.256h3.285V101.1m25.4,0H98.9v5.156h5.9V112.7H98.9v8.044H84.534v4.228h16.679v6.5H98.9V145.7h5.9v1.341h1.283V101.1" transform="translate(-35.779 -48.97)"/>
      <path id="path-41" data-name="path" class="cls-5" d="M108.405,150.545h-5.9v1.341h5.9v-1.341M84.285,111.1H81v40.734h3.285v-19.8H102.5v4.228h2.309v-6.5H88.134v-4.228H84.285V111.1m24.121,0h-5.9v6.445h5.9V111.1" transform="translate(-39.43 -53.814)"/>
      <path id="path-42" data-name="path" class="cls-4" d="M182.905,140.545h-6.518l-2.669,6.5h9.186v-6.5m-5.645-20.728H163.506l2.771,6.5h8.417l2.566-6.5M155.5,119.2v27.844h12.163l-2.823-6.5h-2.155v-5L155.5,119.2m27.405-18.1H155.5v5.156h2.258l4.876,11.5V107.545h19.451l.513-1.289h.257V101.1" transform="translate(-75.696 -48.97)"/>
      <path id="path-43" data-name="path" class="cls-5" d="M176.339,145.389H164.792l2.823,6.5h6.056l2.669-6.5m2.925-20.728h-2.053l-2.566,6.5h4.67v-6.5M157.658,111.1H155.4v12.891l7.134,16.345v-9.178h3.644l-2.771-6.5h-.872V122.65l-4.875-11.55m25.2,0H182.6l-.513,1.289h.77V111.1" transform="translate(-75.648 -53.814)"/>
      <path id="path-44" data-name="path" class="cls-4" d="M245.674,131.47h-7.852v.258L248.189,145.7h8.057L245.674,131.47m7.9-18.769h-6.62a11.988,11.988,0,0,1,.513,3.609,9.031,9.031,0,0,1-2.053,6.239,7.48,7.48,0,0,1-4.927,2.372h11.188a16.31,16.31,0,0,0,2.258-8.611,16.556,16.556,0,0,0-.359-3.609m-14.729-11.6H225.3v45.891h5.389V106.256h20.066a2.7,2.7,0,0,0-.513-.567c-1.848-2.114-5.337-4.589-11.393-4.589" transform="translate(-109.674 -48.97)"/>
      <path id="path-45" data-name="path" class="cls-5" d="M261.309,150.545h-8.057l.975,1.341h8.057l-.975-1.341M255.766,111.1H235.7v40.734h1.745v-15.52h5.235l.154.206v-.206h7.9l-.77-1.031a12.618,12.618,0,0,0,5.286-3.506,10.66,10.66,0,0,0,1.437-1.959H245.6a16.6,16.6,0,0,1-1.694.1H237.5V112.492h6.415c2.977,0,5.183.825,6.569,2.423a7.439,7.439,0,0,1,1.54,2.681h6.62a14.423,14.423,0,0,0-2.874-6.5" transform="translate(-114.737 -53.814)"/>
      <path id="path-46" data-name="path" class="cls-4" d="M315.595,101.1H302.2v45.891h1.745V106.256h7.133V107.6h4.67c2.977,0,5.183.825,6.569,2.423a10.586,10.586,0,0,1,0,12.53c-1.437,1.6-3.644,2.475-6.569,2.475h-4.67v6.445h3.49l10.521,14.18h5.081v1.341h3.952l-12.317-16.6a12.618,12.618,0,0,0,5.286-3.506,17.04,17.04,0,0,0,0-21.192c-1.694-1.959-4.824-4.228-10.11-4.538V102.7l-1.386-1.6" transform="translate(-147.109 -48.97)"/>
      <path id="path-47" data-name="path" class="cls-6" d="M328.454,101.1H328.3l1.437,1.6v-1.547c-.411,0-.821-.052-1.283-.052" transform="translate(-159.814 -48.97)"/>
      <path id="path-48" data-name="path" class="cls-5" d="M331.925,150.545h-5.081l.975,1.341h4.106v-1.341M312.834,111.1H305.7v40.734h5.389v-15.52h1.745v-6.445h-1.745V112.441h1.745V111.1" transform="translate(-148.813 -53.814)"/>
      <path id="path-49" data-name="path" class="cls-4" d="M382.534,115.125a16.442,16.442,0,0,0-4.106,2.991,15.134,15.134,0,0,0-3.028,4.28v13.716a17.516,17.516,0,0,0,3.028,4.28,15.561,15.561,0,0,0,22.017.155H382.534V126.314h16.679v-6.5H382.534v-4.692M402.805,101.1H375.4v10.055a23.365,23.365,0,0,1,5.286-3.094,22.592,22.592,0,0,1,8.879-1.8,23.735,23.735,0,0,1,7.6,1.289h5.7V101.1" transform="translate(-182.742 -48.97)"/>
      <path id="path-50" data-name="path" class="cls-5" d="M375.4,140.9v10.931h27.405v-6.5h-2.361a15.561,15.561,0,0,1-22.017-.155,15.756,15.756,0,0,1-3.028-4.28m14.165-29.8a22.592,22.592,0,0,0-8.879,1.8A23.362,23.362,0,0,0,375.4,116v11.189a17.516,17.516,0,0,1,3.028-4.28,16.444,16.444,0,0,1,4.106-2.991v-7.58h14.575a24.865,24.865,0,0,0-7.544-1.237" transform="translate(-182.742 -53.814)"/>
      <path id="path-51" data-name="path" class="cls-4" d="M469.423,136.575a13.878,13.878,0,0,1-1.488.052H461.52v.206l7.544,10.158h8.057l-7.7-10.416M467.986,112.7h-1.078a11.99,11.99,0,0,1,.513,3.609,9.031,9.031,0,0,1-2.053,6.239,7.138,7.138,0,0,1-3.8,2.166v5.414h4.054a13.053,13.053,0,0,0,4.567-3.248,15.582,15.582,0,0,0,3.7-10.57c0-.67-.051-1.289-.1-1.959a9.452,9.452,0,0,0-5.8-1.65M458.8,101.1H445.2v20.934a22.83,22.83,0,0,1,1.129,7.219,23.792,23.792,0,0,1-1.129,7.167v10.622h7.134V131.47h2.053v-6.445h-2.053V107.6h2.053v-1.341h13.6a16.141,16.141,0,0,1,2.823.206,8.938,8.938,0,0,0-.667-.773c-1.8-2.114-5.337-4.589-11.342-4.589" transform="translate(-216.72 -48.97)"/>
      <path id="path-52" data-name="path" class="cls-6" d="M445.3,141.7v14.386a22.289,22.289,0,0,0,1.129-7.167A24.388,24.388,0,0,0,445.3,141.7" transform="translate(-216.769 -68.636)"/>
      <path id="path-53" data-name="path" class="cls-5" d="M470.285,129.611a11.837,11.837,0,0,1-2.823.309H463.1v6.394h3.182l3.952,5.363v-.206h6.415a14.365,14.365,0,0,0,1.488-.052l-4.568-6.136.77-.309h-4.054v-5.363M476.7,111.1H463.151v1.341h4.362c2.977,0,5.183.825,6.569,2.423a7.436,7.436,0,0,1,1.54,2.681H476.7a9.139,9.139,0,0,1,5.8,1.7,15.5,15.5,0,0,0-2.977-7.941,23.39,23.39,0,0,0-2.823-.206" transform="translate(-225.434 -53.814)"/>
      <path id="path-54" data-name="path" class="cls-4" d="M546.281,127.061v2.372H529.6v5.723h12.42l3.336,8.508h4.516V145h3.849l-7.442-17.944m-23.813-2.475L514,145.056h7.9l.564-1.5V124.586m17.09-13.87H529.6v12.272h1.026l3.233-8.2,3.233,8.2h7.493l-5.029-12.272M533.913,97l-3.028,7.27h6L533.913,97" transform="translate(-250.212 -46.984)"/>
      <path id="path-55" data-name="path" class="cls-5" d="M557.905,150.545h-4.516l.513,1.341h3.952v-1.341M544.921,111.1h-6L530.5,131.416v18.975l3.285-8.353h3.849v-5.723h16.679v-2.372l-1.694-4.125h-7.493l2.31,5.775H536.4l2.309-5.775h-1.026V117.545h9.956l-2.72-6.445" transform="translate(-258.244 -53.814)"/>
    </g>
  </g>
</svg>
