<svg id="group-3" xmlns="http://www.w3.org/2000/svg" viewBox="0 0 384 448">
  <defs>
    <style>
      .cls-1 {
        fill: #efefef;
      }

      .cls-2 {
        fill: #e94c43;
      }
    </style>
  </defs>
  <rect id="rectangle-2" class="cls-1" width="384" height="448"/>
  <g id="rollupjs-seeklogo.com" transform="translate(95.73 34.227)">
    <path id="path" class="cls-2" d="M50.61,110.122c-.395-4.933-1-9.9-1.592-14.7-.579-4.725-1.178-9.61-1.562-14.4A109.608,109.608,0,0,0,40.869,52c-1.021-2.8-2.226-5.538-3.392-8.182l-.108-.243c-.914-2.074-2.141-4.8-3.532-7.468a13.33,13.33,0,0,0-1.391-2.056,6.313,6.313,0,0,1-.829-1.219,7.968,7.968,0,0,0-1.855-3.01l.3-.2c1.317-.883,2.561-1.716,3.849-2.444,1.537-.869,3.11-1.651,4.775-2.48,1.139-.567,2.279-1.134,3.4-1.728.945-.5,1.85-1.035,2.726-1.554a31.992,31.992,0,0,1,4.217-2.23c2.092-.841,4.176-1.751,6.191-2.632,5.238-2.289,10.187-4.452,15.5-5.593A154.025,154.025,0,0,1,86.178,8.566a43.9,43.9,0,0,1,6.946-.01q.773.039,1.543.074l.754.031a23.2,23.2,0,0,1,5.12.564,33.744,33.744,0,0,1,11.37,5.609A20.072,20.072,0,0,1,119.6,27.451a47.127,47.127,0,0,1,.632,9.338c0,1.087.007,2.172.032,3.247a23.382,23.382,0,0,1-.314,3.566c-.056.406-.111.812-.161,1.215-.105.845-.19,1.7-.273,2.547a35.6,35.6,0,0,1-.845,5.612c-2.226,8.29-7.306,15.489-12.218,22.45A84.811,84.811,0,0,1,99.4,83.761c-1.277,1.388-2.6,2.822-3.864,4.289A133.537,133.537,0,0,1,79.6,103.013c-.609.508-1.167,1.03-1.707,1.534-.64.6-1.244,1.162-1.857,1.634-1.575,1.21-3.237,2.4-4.845,3.558-.732.526-1.464,1.051-2.193,1.582-.663.482-1.318.975-1.973,1.467-1.394,1.048-2.711,2.037-4.085,2.924-3.328,2.145-6.768,4.27-10.095,6.323l-2.17,1.34q.016-.536.03-1.065a112.3,112.3,0,0,0-.1-12.189m141.722,51.141c-.127-1.361-.177-2.739-.229-4.2-.141-3.906-.287-7.946-1.957-11.962q-.281-.678-.559-1.361a45.22,45.22,0,0,0-3.563-7.39,39.812,39.812,0,0,0-4.844-5.83c-.413-.436-.825-.872-1.23-1.309a33.935,33.935,0,0,0-4.829-4.589,23.366,23.366,0,0,0-3.167-1.862,17.513,17.513,0,0,1-2.445-1.427,16.939,16.939,0,0,0-6.786-2.775l-.471-.112a24.239,24.239,0,0,0-6.175-.782c-6.843.182-11.768,4.126-14.916,7.115a11.226,11.226,0,0,0-3.033,3.969l-.478,1.224c-1.726,4.4-3.512,8.95-3.575,14.146-.012,1.06-.064,2.119-.119,3.242-.211,4.3-.448,9.169,1.818,13.825.027.077.072.306.1.473l.029.145c1.035,5.212,3.434,12.526,12.3,15.841a19.533,19.533,0,0,0,14.21.186c.183-.068.47-.14.772-.215a6.891,6.891,0,0,0,3.476-1.7c.568-.575,1.176-1.131,1.821-1.721a23.968,23.968,0,0,0,5.058-5.808c2.036-3.589,4.421-9.086,1.626-15.372a47.467,47.467,0,0,0-4.817-8.066,12.413,12.413,0,0,0-4.465-3.627,22.464,22.464,0,0,0-4.316-1.576l-.733-.211c-3.481-1.026-7.643.53-9.274,3.467a27.39,27.39,0,0,0-2.654,6.683,6.467,6.467,0,0,0,2.172,6.075,10.957,10.957,0,0,0,9.356,2,4.746,4.746,0,0,0,2.235-1.308c.1-.089.2-.188.319-.283a3.087,3.087,0,0,0-1.309-5.458c-.7-.138-1.364-.263-2-.383-1.054-.2-1.992-.377-2.9-.573.065-.256.125-.514.184-.772l.022-.1a3.2,3.2,0,0,1,1.087-1.483,20.556,20.556,0,0,1,4.227.964c.839.276,1.474,1.062,2.441,2.322a23.132,23.132,0,0,0,1.611,1.942c2.553,2.682,2.927,8.64.715,11.386-.241.3-.481.6-.722.9a18.632,18.632,0,0,1-4.212,4.334,15.658,15.658,0,0,1-6.55,1.8,9.364,9.364,0,0,1-2.816-.506,23.1,23.1,0,0,0-2.687-.618c-1.774-.269-3.075-1.355-4.638-3.873-2.327-3.744-3.213-8.451-3.994-12.6a29.132,29.132,0,0,1,.226-9.8,41.848,41.848,0,0,1,1.776-6.5c.377-1.144.767-2.326,1.112-3.526,1.041-3.617,3.683-5.812,9.119-7.575,3.655-1.184,7.624-.393,12.135,2.421.262.163.52.335.78.506a16.556,16.556,0,0,0,2.91,1.639,12.886,12.886,0,0,1,5.8,4.9c.109.157.211.321.314.485a9.449,9.449,0,0,0,1.479,1.916c3.508,3.327,5.754,7.792,7.068,14.045a29.518,29.518,0,0,1,.42,3.344l.059.645c.048.522.1,1.043.153,1.565.186,1.865.361,3.627.387,5.376a23.556,23.556,0,0,1-.2,2.851c-.095.862-.193,1.754-.229,2.688a36.332,36.332,0,0,1-2.073,11.482,39.745,39.745,0,0,1-5.39,10.251c-4.831,6.47-10.217,9.225-16.947,8.676l-.678-.058a35.6,35.6,0,0,0-4.636-.191c-2.663.111-5.05.132-7.254-.738-5.677-2.241-9.461-4.747-12.268-8.125a50.973,50.973,0,0,1-4.222-6.01l-.407-.663a43.133,43.133,0,0,1-3.658-6.823,126.515,126.515,0,0,1-4.314-13.412,42.733,42.733,0,0,0-4.04-9.347c-.566-1.061-1.1-2.063-1.6-3.088a36.448,36.448,0,0,0-5.9-8.692,81.555,81.555,0,0,0-13.32-11.24,39.813,39.813,0,0,0-23.475-7.534h-.059c-.305,0-.681-.04-1.078-.082-.229-.024-.457-.048-.686-.068-.872-.074-1.748-.184-2.675-.3-1.039-.131-2.091-.263-3.163-.347,2.007-1.323,4.019-2.679,5.984-4.08A153.988,153.988,0,0,0,96.826,97.47c5.517-5.959,10.83-12.241,15.969-18.318l1.971-2.329a18.923,18.923,0,0,0,2.1-3.26,15.846,15.846,0,0,1,1.277-2.089c3.913-5.016,5.862-10.764,7.746-16.324l.109-.322a43.674,43.674,0,0,0,1.845-11.9,130.254,130.254,0,0,0-.2-14.969,26.676,26.676,0,0,0-7.676-16.777A33.377,33.377,0,0,0,108.459,3.29,32.444,32.444,0,0,0,100.565.92,48.4,48.4,0,0,0,93.813.669c-1.014.011-1.97.02-2.927,0C90.277.657,89.639.607,88.963.555A21.456,21.456,0,0,0,84.317.543l-.68.093C76.959,1.547,70.053,2.49,63.42,4.946c-1.066.395-2.057.86-3.015,1.31-.733.344-1.426.669-2.116.947-1.208.487-2.471.956-3.692,1.409-2.254.839-4.586,1.705-6.849,2.771s-4.5,2.258-6.647,3.406c-2.465,1.315-4.793,2.559-7.218,3.658a75.508,75.508,0,0,0-11.594,6.99c-1.13.779-2.262,1.558-3.406,2.317C13.606,31.247,8.149,34.858,2.791,38.59A6.746,6.746,0,0,0,.506,41.952c-.077.2-.151.393-.239.588A3.159,3.159,0,0,0,1,46.114a3.766,3.766,0,0,0,4.249,1.148,14.536,14.536,0,0,0,3.4-1.952c.975-.793,1.9-1.622,2.8-2.423.749-.668,1.461-1.3,2.189-1.91l.108-.034a5.728,5.728,0,0,0,1.837-.9c1.285-1,2.555-2.013,3.824-3.031.972-.779,1.965-1.575,2.963-2.359,1.118,1.388,2.175,2.7,3.226,4.021.145.184.3.364.449.545a5.9,5.9,0,0,1,.654.863c2.174,4.66,3.982,8.589,5.736,12.617,3.189,7.323,6.1,14.542,6.688,22.351.178,2.365.523,4.7.857,6.96.216,1.465.44,2.98.608,4.45.223,1.943.41,3.941.59,5.872.193,2.051.391,4.173.636,6.271.155,1.324.375,2.625.589,3.882a44.276,44.276,0,0,1,.69,5.322c.283,6.2.3,12.538.318,18.719,0,.263.016.541.034.823,0,.028,0,.057.005.088-1.883,1.179-1.358,3.622-1.12,4.725.1.445.22.845.329,1.2a6.107,6.107,0,0,1,.214.793,10.456,10.456,0,0,1-.212,1.685c-.085.478-.168.957-.224,1.439-.36,3.046-.7,6.092-1.037,9.141-.062.556-.111,1.114-.159,1.671-.039.444-.077.887-.124,1.331-.058.558-.119,1-.192,1.378-.058.305-.129.609-.2.913-.129.562-.276,1.2-.369,1.877-.108.806-.2,1.616-.284,2.425-.118,1.091-.23,2.122-.387,3.1-.023.085-.125.318-.2.489a8.053,8.053,0,0,0-.618,1.835c-.269,1.442-.508,2.9-.739,4.307-.374,2.277-.727,4.428-1.2,6.573-.671,3.039-1.549,6.13-2.4,9.122l-.48,1.694c-1.513,5.381-3.095,10.888-4.834,16.832q-1.045,3.572-2.115,7.135c-.914,3.058-1.826,6.117-2.711,9.181a5.348,5.348,0,0,0,.017,2.685c.02.1.044.19.056.282a3.085,3.085,0,0,0,5.1,1.967c.078-.065.169-.124.258-.186a4.964,4.964,0,0,0,2.057-2.435c1.058-3.057,1.981-6.131,2.744-8.735q.483-1.647.972-3.294c1.128-3.8,2.294-7.739,3.3-11.674,2.05-8.019,4.171-16.311,5.946-24.613,1.338-6.264,2.526-13.026,3.739-21.28.52-3.538.83-7.12,1.131-10.584.133-1.534.267-3.069.417-4.6a4.96,4.96,0,0,0,1.268-.484,27.079,27.079,0,0,1,15.054-3.3c2.387.141,4.914.369,7.951.716.646.074,1.3.138,1.946.2a38.425,38.425,0,0,1,5.96.9,38.97,38.97,0,0,1,13.728,6.852,84.6,84.6,0,0,1,7.194,6.071,35.5,35.5,0,0,1,5.065,5.815,42.352,42.352,0,0,1,2.793,5.223c.392.821.784,1.64,1.194,2.446.272.539.56,1.072.848,1.6a24.665,24.665,0,0,1,1.643,3.436c.375,1.074.657,2.223.957,3.44a34.068,34.068,0,0,0,1.574,5.175c.559,1.333,1.056,2.689,1.582,4.124,1.568,4.276,3.19,8.7,6.529,12.536a24.332,24.332,0,0,1,2.134,3.068c.627,1,1.276,2.038,2.053,3.044,3.546,4.594,8.539,7.035,12.943,9.187,3.388,1.657,7.949,3.445,13.212,2.541a7.7,7.7,0,0,1,1.8.1c10.019,1.254,18.239-2.024,24.432-9.734a43.912,43.912,0,0,0,8.09-15.134,53.015,53.015,0,0,0,2.253-20.378" transform="translate(0 0)"/>
  </g>
</svg>
