<svg id="group-2" xmlns="http://www.w3.org/2000/svg" xmlns:xlink="http://www.w3.org/1999/xlink" viewBox="0 0 384 448">
  <defs>
    <style>
      .cls-1 {
        fill: #FFC7C3;
      }

      .cls-2 {
        fill: #18ffff;
      }

      .cls-3 {
        fill: url(#linear-gradient);
      }

      .cls-4 {
        fill: none;
        stroke: #fff;
        stroke-width: 16px;
      }

      .cls-5 {
        filter: url(#path-2);
      }

      .cls-6 {
        filter: url(#path-1);
      }

      .cls-7 {
        filter: url(#ellipse-1);
      }
    </style>
    <filter id="ellipse-1" x="75.115" y="26" width="233.77" height="233.77" filterUnits="userSpaceOnUse">
      <feOffset dy="3" input="SourceAlpha"/>
      <feGaussianBlur stdDeviation="3" result="blur"/>
      <feFlood flood-opacity="0.161"/>
      <feComposite operator="in" in2="blur"/>
      <feComposite in="SourceGraphic"/>
    </filter>
    <linearGradient id="linear-gradient" x1="0.5" x2="0.5" y2="1" gradientUnits="objectBoundingBox">
      <stop offset="0" stop-color="#19e8e8"/>
      <stop offset="1" stop-color="#28cbcb"/>
    </linearGradient>
    <filter id="path-1" x="75.115" y="133.885" width="233.769" height="125.884" filterUnits="userSpaceOnUse">
      <feOffset dy="3" input="SourceAlpha"/>
      <feGaussianBlur stdDeviation="3" result="blur-2"/>
      <feFlood flood-opacity="0.161"/>
      <feComposite operator="in" in2="blur-2"/>
      <feComposite in="SourceGraphic"/>
    </filter>
    <filter id="path-2" x="130.602" y="91.464" width="123.176" height="109.408" filterUnits="userSpaceOnUse">
      <feOffset dy="3" input="SourceAlpha"/>
      <feGaussianBlur stdDeviation="3" result="blur-3"/>
      <feFlood flood-opacity="0.161"/>
      <feComposite operator="in" in2="blur-3"/>
      <feComposite in="SourceGraphic"/>
    </filter>
  </defs>
  <rect id="rectangle-2" class="cls-1" width="384" height="448"/>
  <g id="group-1" transform="translate(-21.885)">
    <g class="cls-7" transform="matrix(1, 0, 0, 1, 21.88, 0)">
      <circle id="ellipse-1-2" data-name="ellipse-1" class="cls-2" cx="107.885" cy="107.885" r="107.885" transform="translate(84.12 32)"/>
    </g>
    <g class="cls-6" transform="matrix(1, 0, 0, 1, 21.88, 0)">
      <path id="path-1-2" data-name="path-1" class="cls-3" d="M0,0H215.769A107.884,107.884,0,0,1,107.885,107.884,107.885,107.885,0,0,1,0,0Z" transform="translate(84.12 139.89)"/>
    </g>
    <g class="cls-5" transform="matrix(1, 0, 0, 1, 21.88, 0)">
      <path id="path-2-2" data-name="path-2" class="cls-4" d="M158.6,130.751l37.1,34.919L251.9,91.02" transform="translate(-13.52 11.26)"/>
    </g>
  </g>
</svg>
